<?xml version="1.0" encoding="utf-8" ?><svg xmlns="http://www.w3.org/2000/svg" xmlns:xlink="http://www.w3.org/1999/xlink" width="1024" height="1024" viewBox="0 0 1024 1024"><path fill="#4A251E" transform="scale(2 2)" d="M213.23 73.4449C219.217 61.2964 227.552 51.4505 241.787 49.6554C260.249 47.8528 266.207 60.9688 284.178 65.8959C296.936 69.3937 308.972 64.2244 320.755 72.1394C329.053 77.713 332.503 85.8262 334.776 95.291C360.93 86.5943 418.054 96.0661 430.342 123.038C434.128 131.348 435.741 140.113 440.438 148.272C444.079 154.597 448.281 158.505 452.796 164.076C464.182 178.568 460.276 201.496 443.168 209.569C437.005 212.477 426.875 213.215 419.911 214.136C395.3 217.394 370.151 221.684 349.729 236.84C331.288 250.333 313.016 270.652 308.588 293.673C305.881 307.749 348.722 368.84 357.494 380.06C371.544 398.03 395.676 417.664 394.039 442.45C392.936 455.378 367.093 470.475 357.876 456.649C353.804 450.542 356.502 445.468 357.981 439.124C362.073 421.71 340.122 391.904 330.846 378.611C325.077 370.384 319.919 361.806 314.678 353.227C304.852 337.139 309.631 340.212 291.665 332.982C269.613 324.108 268.344 320.808 244.51 327.686C217.969 335.345 193.557 354.517 180.243 378.795C173.98 390.592 170.554 405.815 158.139 413.01C139.37 423.887 127.56 410.393 113.836 399.555C106.94 394.109 96.7611 394.766 89.2954 390.469C76.6695 383.014 76.8829 366.867 70.8745 355.112C67.6997 348.901 62.3888 344.534 58.7839 338.641C49.2075 323.283 53.5047 303.924 69.0554 294.505C56.8595 285.615 50.1028 273.117 55.879 257.965C59.5937 248.22 68.4134 241.349 72.2503 231.455C76.7839 219.766 75.6443 207.046 84.3391 197.033C92.0331 188.02 99.9233 185.89 111.303 184.76C110.418 175.824 115.547 163.072 117.004 153.872C118.329 145.51 117.293 135.828 118.894 128.192C122.42 111.377 141.255 107.293 152.708 97.8565C158.722 93.1823 161.443 86.7889 165.224 80.6163C176.937 61.4955 196.962 63.723 213.23 73.4449ZM301.286 75.4969C289.249 75.6705 272.915 73.3871 263.656 65.55C244.763 49.5562 225.593 59.5356 219.576 80.9157C230.407 115.287 237.406 148.643 251.604 182.583C256.587 195.051 262.449 209.404 266.635 222.115C269.244 212.852 271.873 198.039 273.242 188.324C273.881 183.63 273.697 178.613 274.653 173.977C281.498 140.779 295.497 112.51 327.038 97.8656C324.159 84.4454 316.52 73.5313 301.286 75.4969ZM243.683 183.566C238.7 168.744 233.014 154.224 228.345 139.268C226.094 132.215 213.37 85.0846 210.625 81.7249C202.689 72.0104 179.31 70.6904 172.385 84.3555C168.055 92.9004 164.44 98.3121 156.895 104.754C142.815 116.777 126.253 115.509 126.091 138.258C126.097 144.376 125.824 150.581 124.712 156.534C122.038 170.808 113.034 190.944 125.451 203.114C139.776 217.154 162.748 208.871 179.707 206.163C209.988 201.328 232.807 207.32 258.559 222.115C253.921 209.178 247.914 196.616 243.683 183.566ZM441.632 163.596C414.892 132.39 437.752 115.497 381.746 102.726C334.157 93.0634 306.654 110.422 288.699 153.743C275.447 185.718 283.243 220.085 292.114 252.199C294.058 259.236 295.619 267.407 299.076 273.89C296.277 236.754 319.123 175.663 338.715 145.609C341.178 141.83 344.499 144.904 345.681 148.014C343.614 153.941 336.842 162.857 333.97 169.15C326.008 186.6 316.538 207.878 313.522 226.788C329.144 199.482 360.522 160.312 390.249 146.458C392.52 145.4 395.873 148.518 394.827 152.009C393.191 153.997 387.813 157.202 385.513 158.719C360.339 175.335 339.512 198.012 324.355 224.124C320.76 227.68 310.014 249.778 308.817 253.971C307.701 257.878 307.11 269.57 306.939 273.89C310.493 264.414 318.645 255.335 325.307 247.857C349.861 220.294 378.408 212.084 413.423 207.024C428.549 204.609 451.393 205.617 451.398 183.417C451.4 174.798 447.252 169.482 441.632 163.596ZM83.0514 224.124C81.0708 230.308 79.0641 236.649 75.5387 242.284C68.1264 254.133 56.5681 262.647 64.0221 278.135C66.7142 283.728 72.4126 287.686 77.9587 290.235C118.228 281.537 171.205 290.095 211.113 299.467C217.763 301.029 230.074 303.851 235.954 306.151C239.682 307.067 244.695 308.911 248.38 310.213C241.007 303.238 231.393 297.354 223.641 290.519C203.774 273.004 176.511 242.538 167.542 216.635C143.349 221.673 118.951 220.385 111.303 192.449C89.7005 195.634 86.2445 203.899 83.0514 224.124ZM291.313 278.72C290.761 274.86 289.266 270.787 288.059 267.056C282.562 250.053 280.627 232.293 275.583 216.635C274.125 222.202 272.648 227.888 271.319 233.486C278.45 253.291 285.703 272.027 293.389 291.558C293.562 292.377 295.038 295.864 295.449 296.871C306.228 323.3 320.209 347.843 335.732 371.698C348.311 391.031 370.254 416.175 365.75 441.231C365.125 444.868 360.958 453.546 367.676 454.087C374.777 454.658 385.578 447.847 386.234 440.212C386.832 421.078 361.224 397.951 349.375 382.855C326.65 353.901 308.49 321.623 295.208 287.311C293.901 284.353 292.839 281.566 291.313 278.72ZM228.735 313.011C192.442 312.783 155.366 318.088 124.138 337.421C121.752 338.898 116.839 342.622 113.865 343.618C109.363 343.252 108.424 338.547 112.365 335.702C139.234 316.311 173.449 307.663 206.175 306.151C170.297 298.154 113.925 288.709 77.9301 298.639C70.3001 300.744 63.5778 309.148 61.9597 317.15C58.3635 334.936 77.3494 342.954 81.139 359.418C88.2795 390.438 94.1497 380.921 115.782 391.441C126.132 397.954 137.252 413.597 151.099 407.646C161.041 403.373 165.551 392.09 169.428 382.743C180.655 357.3 201.63 337.594 226.568 325.768C233.432 322.513 240.53 321.281 246.934 318.641L247.292 318.491C241.926 316.91 233.539 315.044 228.735 313.011ZM197.983 212.718C189.841 212.717 183.414 213.434 175.409 215.035C189.173 250.547 224.142 282.073 253.814 303.879L265.369 312.309C273.442 318.114 276.038 318.094 285.161 321.627C290.326 323.608 296.307 326.633 301.286 328.264C300.04 325.325 298.366 322.617 297.019 319.743C286.026 296.291 276.834 271.929 268.153 247.537C267.568 245.894 264.182 235.647 263.281 234.932C245.778 221.046 220.113 212.089 197.983 212.718Z"/><path fill="#A8B858" transform="scale(2 2)" d="M219.576 80.9157C225.593 59.5356 244.763 49.5562 263.656 65.55C272.915 73.3871 289.249 75.6705 301.286 75.4969C302.006 75.5242 302.462 75.4285 303.009 75.7646C296.592 103.644 279.358 113.666 267.625 137.242C261.488 149.575 256.614 175.813 251.604 182.583C237.406 148.643 230.407 115.287 219.576 80.9157Z"/><path fill="#A8B858" transform="scale(2 2)" d="M126.091 138.258C126.253 115.509 142.815 116.777 156.895 104.754C164.44 98.3121 168.055 92.9004 172.385 84.3555C179.31 70.6904 202.689 72.0104 210.625 81.7249C213.37 85.0846 226.094 132.215 228.345 139.268C233.014 154.224 238.7 168.744 243.683 183.566C242.799 184.704 236.457 185.32 234.935 185.457C196.682 188.894 146.616 172.57 126.091 138.258Z"/><path fill="#9EA931" transform="scale(2 2)" d="M301.286 75.4969C316.52 73.5313 324.159 84.4454 327.038 97.8656C295.497 112.51 281.498 140.779 274.653 173.977C273.697 178.613 273.881 183.63 273.242 188.324C271.873 198.039 269.244 212.852 266.635 222.115C262.449 209.404 256.587 195.051 251.604 182.583C256.614 175.813 261.488 149.575 267.625 137.242C279.358 113.666 296.592 103.644 303.009 75.7646C302.462 75.4285 302.006 75.5242 301.286 75.4969Z"/><path fill="#E7CFC3" transform="scale(2 2)" d="M299.076 273.89C295.619 267.407 294.058 259.236 292.114 252.199C283.243 220.085 275.447 185.718 288.699 153.743C306.654 110.422 334.157 93.0634 381.746 102.726C437.752 115.497 414.892 132.39 441.632 163.596C428.189 188.673 410.271 190.573 384.777 195.315C364.965 199.001 344.953 206.841 329.619 220.168C328.456 221.169 325.658 224.011 324.355 224.124C339.512 198.012 360.339 175.335 385.513 158.719C387.813 157.202 393.191 153.997 394.827 152.009C395.873 148.518 392.52 145.4 390.249 146.458C360.522 160.312 329.144 199.482 313.522 226.788C316.538 207.878 326.008 186.6 333.97 169.15C336.842 162.857 343.614 153.941 345.681 148.014C344.499 144.904 341.178 141.83 338.715 145.609C319.123 175.663 296.277 236.754 299.076 273.89Z"/><path fill="#9EA931" transform="scale(2 2)" d="M126.091 138.258C146.616 172.57 196.682 188.894 234.935 185.457C236.457 185.32 242.799 184.704 243.683 183.566C247.914 196.616 253.921 209.178 258.559 222.115C232.807 207.32 209.988 201.328 179.707 206.163C162.748 208.871 139.776 217.154 125.451 203.114C113.034 190.944 122.038 170.808 124.712 156.534C125.824 150.581 126.097 144.376 126.091 138.258Z"/><path fill="#BE7D69" transform="scale(2 2)" d="M441.632 163.596C447.252 169.482 451.4 174.798 451.398 183.417C451.393 205.617 428.549 204.609 413.423 207.024C378.408 212.084 349.861 220.294 325.307 247.857C318.645 255.335 310.493 264.414 306.939 273.89C307.11 269.57 307.701 257.878 308.817 253.971C310.014 249.778 320.76 227.68 324.355 224.124C325.658 224.011 328.456 221.169 329.619 220.168C344.953 206.841 364.965 199.001 384.777 195.315C410.271 190.573 428.189 188.673 441.632 163.596Z"/><path fill="#9EA931" transform="scale(2 2)" d="M83.0514 224.124C86.2445 203.899 89.7005 195.634 111.303 192.449C118.951 220.385 143.349 221.673 167.542 216.635C176.511 242.538 203.774 273.004 223.641 290.519C231.393 297.354 241.007 303.238 248.38 310.213C244.695 308.911 239.682 307.067 235.954 306.151C235.343 302.068 219.199 292.708 215.279 289.939C186.737 269.783 160.355 250.309 129.66 233.069C115.03 224.852 99.7201 214.715 83.0514 224.124Z"/><path fill="#A8B858" transform="scale(2 2)" d="M77.9587 290.235C72.4126 287.686 66.7142 283.728 64.0221 278.135C56.5681 262.647 68.1264 254.133 75.5387 242.284C79.0641 236.649 81.0708 230.308 83.0514 224.124C99.7201 214.715 115.03 224.852 129.66 233.069C160.355 250.309 186.737 269.783 215.279 289.939C219.199 292.708 235.343 302.068 235.954 306.151C230.074 303.851 217.763 301.029 211.113 299.467C171.205 290.095 118.228 281.537 77.9587 290.235Z"/><defs><linearGradient id="gradient_0" gradientUnits="userSpaceOnUse" x1="273.15836" y1="295.76804" x2="388.16223" y2="442.49435"><stop offset="0" stop-color="#A27B5F"/><stop offset="1" stop-color="#C28F70"/></linearGradient></defs><path fill="url(#gradient_0)" transform="scale(2 2)" d="M291.313 278.72C292.839 281.566 293.901 284.353 295.208 287.311C308.49 321.623 326.65 353.901 349.375 382.855C361.224 397.951 386.832 421.078 386.234 440.212C385.578 447.847 374.777 454.658 367.676 454.087C360.958 453.546 365.125 444.868 365.75 441.231C370.254 416.175 348.311 391.031 335.732 371.698C320.209 347.843 306.228 323.3 295.449 296.871C295.038 295.864 293.562 292.377 293.389 291.558C293.572 288.723 291.398 282.948 291.313 278.72Z"/><path fill="#A8B858" transform="scale(2 2)" d="M206.175 306.151C173.449 307.663 139.234 316.311 112.365 335.702C108.424 338.547 109.363 343.252 113.865 343.618C116.839 342.622 121.752 338.898 124.138 337.421C155.366 318.088 192.442 312.783 228.735 313.011C226.634 314.64 219.993 315.633 217.073 316.477C191.402 323.9 169.041 333.43 153.093 356.535C143.883 369.878 136.275 381.824 121.391 389.399C119.988 390.113 116.931 390.706 115.782 391.441C94.1497 380.921 88.2795 390.438 81.139 359.418C77.3494 342.954 58.3635 334.936 61.9597 317.15C63.5778 309.148 70.3001 300.744 77.9301 298.639C113.925 288.709 170.297 298.154 206.175 306.151Z"/><path fill="#9EA931" transform="scale(2 2)" d="M228.735 313.011C233.539 315.044 241.926 316.91 247.292 318.491L246.934 318.641C240.53 321.281 233.432 322.513 226.568 325.768C201.63 337.594 180.655 357.3 169.428 382.743C165.551 392.09 161.041 403.373 151.099 407.646C137.252 413.597 126.132 397.954 115.782 391.441C116.931 390.706 119.988 390.113 121.391 389.399C136.275 381.824 143.883 369.878 153.093 356.535C169.041 333.43 191.402 323.9 217.073 316.477C219.993 315.633 226.634 314.64 228.735 313.011Z"/></svg>