<?xml version="1.0" encoding="utf-8" ?><svg xmlns="http://www.w3.org/2000/svg" xmlns:xlink="http://www.w3.org/1999/xlink" width="1024" height="1024" viewBox="0 0 1024 1024"><path fill="#7493B9" transform="scale(2 2)" d="M234.695 191.766C224.018 172.394 241.613 156.606 256.34 165.386C267.104 171.804 266.786 182.155 261.098 191.766C272.512 191.946 297.756 189.122 305.635 196.585C313.217 203.765 311.453 211.232 311.752 220.572C312.13 220.969 314.951 221.628 315.747 221.906C327.756 226.091 335.47 233.085 344.569 241.663C345.635 243.755 350.345 249.062 352.193 251.566C354.461 254.64 357.482 260.994 359.253 263.095C359.443 264.615 362.998 271.675 363.838 274.082C366.502 281.714 366.448 288.292 367.752 295.919C367.783 305.404 367.597 313.744 364.636 322.812C364.329 323.753 363.362 326.849 363.472 327.665C361.971 329.233 356.949 340.929 355.76 343.885C345.617 358.87 329.784 371.95 311.752 375.902C311.637 365.444 301.017 368.46 293.188 368.463L215.389 368.463C208.619 368.463 185.674 365.36 184.736 374.179L184.415 373.836C164.286 371.982 145.435 357.413 136.299 339.709C135.603 338.36 133.103 332.981 132.246 332.417C132.486 331.564 131.618 329.52 131.308 328.64C127.422 317.595 126.362 307.605 126.721 295.919C128.369 279.652 132.911 268.849 141.194 255.004C154.009 240.947 163.883 226.172 184.736 221.41C185.09 195.937 187.418 191.748 214.264 191.755L234.695 191.766Z"/><path fill="#6C88A8" transform="scale(2 2)" d="M126.721 295.919C128.199 296.161 131.423 295.944 133.051 295.939L308.279 295.925C327.772 295.924 348.331 295.578 367.752 295.919C367.783 305.404 367.597 313.744 364.636 322.812C364.329 323.753 363.362 326.849 363.472 327.665C361.971 329.233 356.949 340.929 355.76 343.885C345.617 358.87 329.784 371.95 311.752 375.902C311.637 365.444 301.017 368.46 293.188 368.463L215.389 368.463C208.619 368.463 185.674 365.36 184.736 374.179L184.415 373.836C164.286 371.982 145.435 357.413 136.299 339.709C135.603 338.36 133.103 332.981 132.246 332.417C132.486 331.564 131.618 329.52 131.308 328.64C127.422 317.595 126.362 307.605 126.721 295.919Z"/><path fill="#4B5055" transform="scale(2 2)" d="M234.695 191.766C224.018 172.394 241.613 156.606 256.34 165.386C267.104 171.804 266.786 182.155 261.098 191.766C272.512 191.946 297.756 189.122 305.635 196.585C313.217 203.765 311.453 211.232 311.752 220.572C311.075 226.494 298.06 224.255 292.905 224.255L188.77 224.235C186.399 224.23 185.421 223.736 184.736 221.41C185.09 195.937 187.418 191.748 214.264 191.755L234.695 191.766Z"/><path fill="#50433C" transform="scale(2 2)" d="M128.744 248.945L128.74 208.62C128.742 178.929 128.963 155.424 150.084 131.887C179.646 98.9447 211.293 105.141 249.853 104.435C260.285 104.953 271.614 103.639 281.966 104.732C309.464 107.638 333.603 123.277 347.572 147.053C358.319 165.345 359.255 178.856 359.264 199.137L359.247 220.39C359.226 224.199 359.093 227.894 359.253 231.708C358.651 238.489 359.351 247.699 359.253 255.004C359.273 256.429 359.432 262.024 359.253 263.095C357.482 260.994 354.461 254.64 352.193 251.566C350.345 249.062 345.635 243.755 344.569 241.663C344.267 238.715 344.558 230.029 344.562 226.483L344.577 201.342C344.578 195.406 344.711 189.561 344.224 183.59C341.356 148.472 311.555 120.215 276.392 119.06C265.988 118.718 255.185 118.987 244.661 118.98L223.622 118.966C213.335 118.964 205.037 118.676 194.916 121.258C168.332 127.869 147.58 151.51 144.686 178.792C143.865 186.534 144.251 195.72 144.251 203.611L144.26 233.517C144.264 238.469 144.445 244.088 144.258 248.945L128.744 248.945Z"/><path fill="#50433C" transform="scale(2 2)" d="M184.736 374.179C185.674 365.36 208.619 368.463 215.389 368.463L293.188 368.463C301.017 368.46 311.637 365.444 311.752 375.902C311.419 379.174 309.825 382.01 306.241 382.144C289.203 382.778 271.698 382.016 254.684 382.345C254.615 385.649 254.675 389.124 254.684 392.442L299.321 392.43C306.973 392.43 314.644 392.376 322.282 392.503C330.645 392.642 329.439 403.663 324.96 406.922L193.378 406.926C189.528 406.927 173.465 408.051 170.856 405.289C167.207 401.425 168.125 392.788 174.535 392.454C176.694 392.342 178.776 392.435 180.874 392.436L239.279 392.442C239.3 389.068 239.216 385.736 239.279 382.345L197.353 382.359C190.921 382.326 183.08 383.427 184.736 374.179Z"/><path fill="#61676F" transform="scale(2 2)" d="M118.417 325.589C104.626 318.373 89.5054 300.087 84.7102 285.356C82.7652 279.381 65.0917 221.848 65.8362 217.656C68.6737 215.045 82.249 216.162 86.103 216.224C88.5079 217.732 89.3848 219.631 91.0346 221.886C102.733 237.874 111.768 251.315 132.246 255.004C135.36 254.712 138.141 255.117 141.194 255.004C132.911 268.849 128.369 279.652 126.721 295.919C126.362 307.605 127.422 317.595 131.308 328.64C131.618 329.52 132.486 331.564 132.246 332.417C127.932 330.684 122.507 327.89 118.417 325.589Z"/><path fill="#4B5055" transform="scale(2 2)" d="M132.246 255.004C135.36 254.712 138.141 255.117 141.194 255.004C132.911 268.849 128.369 279.652 126.721 295.919C126.362 307.605 127.422 317.595 131.308 328.64C131.618 329.52 132.486 331.564 132.246 332.417C127.932 330.684 122.507 327.89 118.417 325.589C118.34 324.765 116.195 319.291 115.797 317.977C109.21 296.217 114.41 272.141 130.973 256.216C131.54 255.671 131.7 255.728 132.246 255.004Z"/><path fill="#9C5F37" transform="scale(2 2)" d="M359.253 238.137C377.179 230.635 397.863 219.941 417.228 228.372C441.915 239.12 443.193 266.083 433.677 288.126C420.55 318.535 388.139 339.582 355.76 343.885C356.949 340.929 361.971 329.233 363.472 327.665C389.222 322.211 413.383 303.307 422.436 278.395C427.775 263.704 426.52 246.645 409.762 240.792C395.426 235.784 372.762 248.253 359.253 255.004C359.351 247.699 358.651 238.489 359.253 231.708L359.253 238.137Z"/><path fill="#E7E7E6" transform="scale(2 2)" d="M400.038 115.33C403.273 114.959 406.545 115.386 407.818 119.186C409.689 124.77 399.725 129.208 399.384 140.771C398.387 160.493 425.336 165.035 409.166 198.715C407.655 202.004 405.774 205.472 402.27 206.717C388.818 208.648 396.601 193.45 398.975 188.483C405.985 173.819 393.665 167.912 388.804 155.738C383.907 143.152 385.234 121.086 400.038 115.33Z"/><path fill="#E7E7E6" transform="scale(2 2)" d="M436.097 127.341C439.398 127.103 442.77 128.349 443.972 131.705C446.085 137.604 433.062 142.578 432.795 155.042C432.147 165.699 442.003 171.002 444.776 180.548C447.659 190.473 443.03 211.375 432.43 214.801C429.257 215.136 425.579 213.345 424.567 210.295C423.017 205.621 428.479 199.891 430.631 195.627C437.216 182.579 424.404 176.383 420.737 165.356C416.2 152.571 422.137 132.084 436.097 127.341Z"/></svg>