<?xml version="1.0" encoding="utf-8" ?><svg xmlns="http://www.w3.org/2000/svg" xmlns:xlink="http://www.w3.org/1999/xlink" width="1024" height="1024" viewBox="0 0 1024 1024"><path fill="#4D4848" transform="scale(2 2)" d="M214.065 375.49C214.586 370.176 214.468 363.172 214.678 357.77L225.162 50.1557C225.754 36.6144 222.387 19.0613 239.223 15.7475C248.493 15.4256 257.864 15.7374 267.141 15.743C287.782 15.7555 284.983 32.3601 285.55 47.3244L296.68 352.777C296.933 360.382 297.42 367.873 297.302 375.49C299.719 374.554 302.574 373.06 305.003 371.952L319.274 365.59C330.922 360.373 352.46 349.949 364.265 346.513C369.706 344.929 373.997 351.207 370.723 355.67C367.182 360.497 363.231 365.162 359.431 369.801L266.272 484.918C264.491 487.099 257.742 497.162 253.584 493.307C247.711 487.862 242.261 480.067 237.201 473.879L143.122 357.608C138.566 352.043 142.161 344.665 149.647 347.578C153.773 349.184 157.768 350.957 161.845 352.668L187.098 363.354C194.346 366.48 207.939 371.317 214.065 375.49ZM168.412 368.519L168.412 368.519C171.453 374.417 186.92 391.943 191.892 398.143L256.242 477.759C259.359 473.258 264.748 466.842 268.289 462.471L343.095 369.31C326.673 376.001 310.716 383.648 294.421 390.625C290.694 392.221 288.702 392.058 285.818 389.089C285.467 387.088 285.389 382.276 285.313 380.14L279.416 214.203C279.283 210.128 278.962 204.58 279.305 200.612C278.461 195.557 278.448 184.607 278.224 178.901L273.482 53.2957C273.16 44.8444 272.658 36.4938 272.5 28.0296C268.612 27.7223 241.515 27.7591 239.425 28.6234C237.978 29.2221 237.822 44.961 237.733 47.5037L227.269 358.25C227.141 363.891 227.881 383.486 226.219 387.523C222.963 395.429 209.638 386.555 205.012 384.505L180.902 374.015C176.998 372.311 172.229 369.995 168.412 368.519L168.412 368.519Z"/><path fill="#4D4848" transform="scale(2 2)" d="M252.038 58.1667C241.43 60.616 243.088 39.3085 248.506 36.5491C261.829 35.7342 258.687 55.0121 252.038 58.1667Z"/><path fill="#4D4848" transform="scale(2 2)" d="M250.391 87.3065C240.108 87.4394 242.259 67.8021 248.506 65.5499C259.338 65.2203 257.879 84.6888 250.391 87.3065Z"/><path fill="#4D4848" transform="scale(2 2)" d="M249.459 114.744C239.387 115.088 240.144 95.6834 247.553 94.0521C257.525 93.7744 257.088 111.945 249.459 114.744Z"/><path fill="#4D4848" transform="scale(2 2)" d="M248.1 142.748C238.22 143.38 239.101 124.228 246.56 121.56C256.73 121.12 255.736 140.464 248.1 142.748Z"/><path fill="#4D4848" transform="scale(2 2)" d="M247.553 171.087C236.302 172.455 239.01 152.372 244.769 150.273C256.034 149.735 253.857 168.302 247.553 171.087Z"/><path fill="#4D4848" transform="scale(2 2)" d="M245.493 199.317C236.379 199.115 236.257 180.457 244.769 178.812C254.541 179.827 253.659 197.262 245.493 199.317Z"/><path fill="#4D4848" transform="scale(2 2)" d="M244.769 226.789C235.11 226.718 236.219 207.947 243.735 206.324C253.745 206.912 253.013 224.838 244.769 226.789Z"/><path fill="#4D4848" transform="scale(2 2)" d="M244.358 254.73C233.754 255.193 234.864 236.099 242.461 234.06C252.791 233.625 251.761 252.442 244.358 254.73Z"/><path fill="#4D4848" transform="scale(2 2)" d="M243.735 282.969C232.88 284.498 234.88 265.23 240.277 262.547C252.14 261.158 250.733 280.821 243.735 282.969Z"/><path fill="#4D4848" transform="scale(2 2)" d="M242.78 311.42C232.511 312.527 232.935 293.598 240.277 290.549C250.315 289.4 250.293 308.24 242.78 311.42Z"/><path fill="#4D4848" transform="scale(2 2)" d="M242.461 339.689C230.723 340.962 232.368 321.987 239.223 319.269C250.04 318.203 248.484 336.937 242.461 339.689Z"/><path fill="#4D4848" transform="scale(2 2)" d="M240.277 368.519C230.394 368.378 230.528 348.267 239.223 347.078C248.547 347.024 247.818 366.575 240.277 368.519Z"/><path fill="#4D4848" transform="scale(2 2)" d="M240.277 401.635C228.378 403.248 231.477 378.111 237.256 375.49C245.577 374.489 245.182 381.172 244.826 387.171C244.462 393.319 246.668 398.674 240.277 401.635Z"/></svg>