<svg xmlns="http://www.w3.org/2000/svg" xmlns:xlink="http://www.w3.org/1999/xlink" width="849" zoomAndPan="magnify" viewBox="0 0 636.75 499.49999" height="666" preserveAspectRatio="xMidYMid meet" version="1.0"><defs><clipPath id="fcfcf87373"><path d="M 36 37 L 327 37 L 327 329 L 36 329 Z M 36 37 " clip-rule="nonzero"/></clipPath><clipPath id="1ca6b3c5ee"><path d="M 0.195312 224.867188 L 233.722656 0.746094 L 439.167969 214.8125 L 205.640625 438.933594 Z M 0.195312 224.867188 " clip-rule="nonzero"/></clipPath><clipPath id="43d97c2b75"><path d="M 0.195312 224.867188 L 233.722656 0.746094 L 439.167969 214.8125 L 205.640625 438.933594 Z M 0.195312 224.867188 " clip-rule="nonzero"/></clipPath><clipPath id="f45234cac4"><path d="M 0.195312 224.867188 L 233.722656 0.746094 L 439.167969 214.8125 L 205.640625 438.933594 Z M 0.195312 224.867188 " clip-rule="nonzero"/></clipPath><clipPath id="65508c0aab"><path d="M 308 36 L 600 36 L 600 328 L 308 328 Z M 308 36 " clip-rule="nonzero"/></clipPath><clipPath id="f2bf3e230f"><path d="M 394.863281 0 L 635.824219 216.109375 L 437.726562 436.992188 L 196.761719 220.882812 Z M 394.863281 0 " clip-rule="nonzero"/></clipPath><clipPath id="8eb59decf6"><path d="M 394.863281 0 L 635.824219 216.109375 L 437.726562 436.992188 L 196.761719 220.882812 Z M 394.863281 0 " clip-rule="nonzero"/></clipPath><clipPath id="4bea3a0583"><path d="M 394.863281 0 L 635.824219 216.109375 L 437.726562 436.992188 L 196.761719 220.882812 Z M 394.863281 0 " clip-rule="nonzero"/></clipPath><clipPath id="a25474b011"><path d="M 206 202 L 281 202 L 281 276 L 206 276 Z M 206 202 " clip-rule="nonzero"/></clipPath><clipPath id="ce7b5e5928"><path d="M 199.21875 217.34375 L 277.652344 200.671875 L 291.265625 264.722656 L 212.832031 281.394531 Z M 199.21875 217.34375 " clip-rule="nonzero"/></clipPath><clipPath id="f548acaed0"><path d="M 218.878906 250.390625 C 230.410156 258.511719 233.113281 259.699219 235.898438 260.179688 C 238.503906 260.542969 241.46875 260.449219 244.003906 259.757812 C 246.464844 259.082031 248.769531 257.671875 250.765625 256.253906 C 252.6875 254.847656 254.167969 253.15625 255.746094 251.210938 C 257.511719 249.074219 259.242188 246.40625 260.535156 243.835938 C 261.957031 241.15625 263.058594 238.777344 263.886719 235.460938 C 264.878906 231.113281 265.234375 224.144531 265.316406 219.839844 C 265.382812 216.914062 264.621094 214.777344 265.019531 212.320312 C 265.3125 209.730469 266.457031 206.113281 267.496094 204.515625 C 268.015625 203.714844 268.46875 203.3125 269.226562 202.921875 C 270.207031 202.484375 271.761719 202.230469 272.792969 202.394531 C 273.660156 202.515625 274.355469 202.902344 274.949219 203.542969 C 275.707031 204.226562 276.824219 205.519531 276.675781 206.625 C 276.433594 208.359375 272.734375 212.210938 271 212.347656 C 269.648438 212.484375 267.765625 210.816406 267.117188 209.574219 C 266.542969 208.316406 266.589844 206.011719 267.265625 204.871094 C 268 203.640625 269.984375 202.53125 271.320312 202.324219 C 272.363281 202.179688 273.585938 202.53125 274.402344 203.125 C 275.289062 203.699219 276.109375 204.675781 276.460938 205.597656 C 276.75 206.609375 276.941406 207.871094 276.542969 208.875 C 276.027344 210.054688 274.476562 211.765625 273.113281 212.207031 C 271.8125 212.558594 269.574219 212.117188 268.476562 211.277344 C 267.363281 210.363281 266.601562 208.230469 266.628906 206.921875 C 266.632812 205.847656 267.234375 204.722656 267.917969 203.964844 C 268.597656 203.207031 270.597656 202.171875 270.792969 202.359375 C 271.015625 202.695312 267.054688 208.207031 266.644531 208.066406 C 266.480469 208.023438 266.5625 207.316406 266.6875 206.832031 C 266.824219 206.035156 267.539062 204.351562 268.234375 203.667969 C 268.859375 203 269.636719 202.683594 270.351562 202.453125 C 271.160156 202.28125 272.070312 202.242188 272.792969 202.394531 C 273.601562 202.605469 274.175781 202.789062 274.949219 203.542969 C 276.570312 205.039062 279.398438 209.339844 280.28125 213.132812 C 281.457031 217.941406 280.152344 225.492188 279.636719 230.277344 C 279.238281 233.808594 278.683594 236.605469 277.984375 239.4375 C 277.367188 241.941406 276.902344 243.726562 275.644531 246.445312 C 273.796875 250.359375 269.613281 256.996094 267.054688 260.449219 C 265.316406 262.734375 264.128906 263.980469 262.253906 265.605469 C 260.203125 267.496094 257.316406 269.414062 254.777344 270.796875 C 252.441406 272.058594 250.1875 272.996094 247.65625 273.6875 C 244.917969 274.5 241.75 275.097656 238.679688 275.058594 C 235.53125 275.039062 231.921875 274.273438 228.972656 273.371094 C 226.347656 272.550781 224.058594 271.503906 221.882812 270.28125 C 219.707031 269.058594 217.851562 267.539062 216.054688 265.929688 C 214.167969 264.261719 212.28125 262.59375 210.742188 260.394531 C 209.066406 257.914062 206.582031 254.152344 206.726562 251.59375 C 206.835938 249.582031 208.863281 247.234375 210.230469 246.101562 C 211.207031 245.28125 212.480469 244.78125 213.550781 244.78125 C 214.683594 244.695312 216.1875 245.292969 217.019531 245.960938 C 217.746094 246.496094 218.195312 247.167969 218.511719 247.941406 C 218.742188 248.660156 218.878906 250.390625 218.878906 250.390625 " clip-rule="nonzero"/></clipPath><clipPath id="a07a0010fb"><path d="M 0.386719 0.117188 L 75 0.117188 L 75 73.246094 L 0.386719 73.246094 Z M 0.386719 0.117188 " clip-rule="nonzero"/></clipPath><clipPath id="324c9b1af5"><path d="M -6.78125 15.34375 L 71.652344 -1.328125 L 85.265625 62.722656 L 6.832031 79.394531 Z M -6.78125 15.34375 " clip-rule="nonzero"/></clipPath><clipPath id="1209f82216"><path d="M 12.878906 48.390625 C 24.410156 56.511719 27.113281 57.699219 29.898438 58.179688 C 32.503906 58.542969 35.46875 58.449219 38.003906 57.757812 C 40.464844 57.082031 42.769531 55.671875 44.765625 54.253906 C 46.6875 52.847656 48.167969 51.15625 49.746094 49.210938 C 51.511719 47.074219 53.242188 44.40625 54.535156 41.835938 C 55.957031 39.15625 57.058594 36.777344 57.886719 33.460938 C 58.878906 29.113281 59.234375 22.144531 59.316406 17.839844 C 59.382812 14.914062 58.621094 12.777344 59.019531 10.320312 C 59.3125 7.730469 60.457031 4.113281 61.496094 2.515625 C 62.015625 1.714844 62.46875 1.3125 63.226562 0.921875 C 64.207031 0.484375 65.761719 0.230469 66.792969 0.394531 C 67.660156 0.515625 68.355469 0.902344 68.949219 1.542969 C 69.707031 2.226562 70.824219 3.519531 70.675781 4.625 C 70.433594 6.359375 66.734375 10.210938 65 10.347656 C 63.648438 10.484375 61.765625 8.816406 61.117188 7.574219 C 60.542969 6.316406 60.589844 4.011719 61.265625 2.871094 C 62 1.640625 63.984375 0.53125 65.320312 0.324219 C 66.363281 0.179688 67.585938 0.53125 68.402344 1.125 C 69.289062 1.699219 70.109375 2.675781 70.460938 3.597656 C 70.75 4.609375 70.941406 5.871094 70.542969 6.875 C 70.027344 8.054688 68.476562 9.765625 67.113281 10.207031 C 65.8125 10.558594 63.574219 10.117188 62.476562 9.277344 C 61.363281 8.363281 60.601562 6.230469 60.628906 4.921875 C 60.632812 3.847656 61.234375 2.722656 61.917969 1.964844 C 62.597656 1.207031 64.597656 0.171875 64.792969 0.359375 C 65.015625 0.695312 61.054688 6.207031 60.644531 6.066406 C 60.480469 6.023438 60.5625 5.316406 60.6875 4.832031 C 60.824219 4.035156 61.539062 2.351562 62.234375 1.667969 C 62.859375 1 63.636719 0.683594 64.351562 0.453125 C 65.160156 0.28125 66.070312 0.242188 66.792969 0.394531 C 67.601562 0.605469 68.175781 0.789062 68.949219 1.542969 C 70.570312 3.039062 73.398438 7.339844 74.28125 11.132812 C 75.457031 15.941406 74.152344 23.492188 73.636719 28.277344 C 73.238281 31.808594 72.683594 34.605469 71.984375 37.4375 C 71.367188 39.941406 70.902344 41.726562 69.644531 44.445312 C 67.796875 48.359375 63.613281 54.996094 61.054688 58.449219 C 59.316406 60.734375 58.128906 61.980469 56.253906 63.605469 C 54.203125 65.496094 51.316406 67.414062 48.777344 68.796875 C 46.441406 70.058594 44.1875 70.996094 41.65625 71.6875 C 38.917969 72.5 35.75 73.097656 32.679688 73.058594 C 29.53125 73.039062 25.921875 72.273438 22.972656 71.371094 C 20.347656 70.550781 18.058594 69.503906 15.882812 68.28125 C 13.707031 67.058594 11.851562 65.539062 10.054688 63.929688 C 8.167969 62.261719 6.28125 60.59375 4.742188 58.394531 C 3.066406 55.914062 0.582031 52.152344 0.726562 49.59375 C 0.835938 47.582031 2.863281 45.234375 4.230469 44.101562 C 5.207031 43.28125 6.480469 42.78125 7.550781 42.78125 C 8.683594 42.695312 10.1875 43.292969 11.019531 43.960938 C 11.746094 44.496094 12.195312 45.167969 12.511719 45.941406 C 12.742188 46.660156 12.878906 48.390625 12.878906 48.390625 " clip-rule="nonzero"/></clipPath><clipPath id="6e9d1687f5"><rect x="0" width="75" y="0" height="74"/></clipPath><clipPath id="536cc0d0b2"><path d="M 181 196 L 201 196 L 201 218 L 181 218 Z M 181 196 " clip-rule="nonzero"/></clipPath><clipPath id="8f2a322104"><path d="M 180.214844 198.449219 L 198.003906 194.667969 L 202.382812 215.269531 L 184.59375 219.050781 Z M 180.214844 198.449219 " clip-rule="nonzero"/></clipPath><clipPath id="049b30fc00"><path d="M 181.976562 206.148438 C 184.183594 201.390625 183.574219 199.601562 184.125 198.949219 C 184.558594 198.476562 185.605469 198.710938 185.980469 198.324219 C 186.316406 198.101562 186.265625 197.5 186.527344 197.289062 C 186.878906 197.140625 187.46875 197.394531 187.835938 197.320312 C 188.054688 197.273438 188.230469 197.003906 188.507812 196.871094 C 188.785156 196.734375 189.28125 196.550781 189.648438 196.472656 C 190.089844 196.378906 190.46875 196.375 190.925781 196.355469 C 191.234375 196.367188 191.71875 196.492188 191.957031 196.519531 C 192.101562 196.488281 192.21875 196.308594 192.308594 196.367188 C 192.542969 196.394531 192.695312 196.746094 192.855469 196.789062 C 193.035156 196.902344 193.105469 196.886719 193.285156 197.003906 C 193.535156 197.101562 193.671875 197.378906 193.996094 197.464844 C 194.496094 197.664062 195.710938 197.253906 196.007812 197.574219 C 196.292969 197.820312 195.625 198.648438 195.898438 199.203125 C 196.246094 200.125 198.378906 200.4375 199.132812 201.8125 C 200.273438 203.941406 201.03125 209.296875 199.972656 211.898438 C 199 214.171875 196.296875 216.585938 193.9375 217.007812 C 191.265625 217.425781 186.363281 215.25 184.398438 213.214844 C 182.714844 211.429688 181.976562 206.148438 181.976562 206.148438 " clip-rule="nonzero"/></clipPath><clipPath id="ba9eb6dcd6"><path d="M 0.929688 0.125 L 20 0.125 L 20 21.460938 L 0.929688 21.460938 Z M 0.929688 0.125 " clip-rule="nonzero"/></clipPath><clipPath id="e6f42f0c0a"><path d="M -0.785156 2.449219 L 17.003906 -1.332031 L 21.382812 19.269531 L 3.59375 23.050781 Z M -0.785156 2.449219 " clip-rule="nonzero"/></clipPath><clipPath id="b10cc73a1e"><path d="M 0.976562 10.148438 C 3.183594 5.390625 2.574219 3.601562 3.125 2.949219 C 3.558594 2.476562 4.605469 2.710938 4.980469 2.324219 C 5.316406 2.101562 5.265625 1.5 5.527344 1.289062 C 5.878906 1.140625 6.46875 1.394531 6.835938 1.320312 C 7.054688 1.273438 7.230469 1.003906 7.507812 0.871094 C 7.785156 0.734375 8.28125 0.550781 8.648438 0.472656 C 9.089844 0.378906 9.46875 0.375 9.925781 0.355469 C 10.234375 0.367188 10.71875 0.492188 10.957031 0.519531 C 11.101562 0.488281 11.21875 0.308594 11.308594 0.367188 C 11.542969 0.394531 11.695312 0.746094 11.855469 0.789062 C 12.035156 0.902344 12.105469 0.886719 12.285156 1.003906 C 12.535156 1.101562 12.671875 1.378906 12.996094 1.464844 C 13.496094 1.664062 14.710938 1.253906 15.007812 1.574219 C 15.292969 1.820312 14.625 2.648438 14.898438 3.203125 C 15.246094 4.125 17.378906 4.4375 18.132812 5.8125 C 19.273438 7.941406 20.03125 13.296875 18.972656 15.898438 C 18 18.171875 15.296875 20.585938 12.9375 21.007812 C 10.265625 21.425781 5.363281 19.25 3.398438 17.214844 C 1.714844 15.429688 0.976562 10.148438 0.976562 10.148438 " clip-rule="nonzero"/></clipPath><clipPath id="6409248537"><rect x="0" width="20" y="0" height="22"/></clipPath><clipPath id="9397789009"><path d="M 225 164 L 245 164 L 245 186 L 225 186 Z M 225 164 " clip-rule="nonzero"/></clipPath><clipPath id="ec4596ef09"><path d="M 223.210938 167.128906 L 243.144531 162.890625 L 247.339844 182.632812 L 227.410156 186.867188 Z M 223.210938 167.128906 " clip-rule="nonzero"/></clipPath><clipPath id="83207bd877"><path d="M 225.4375 177.453125 C 226.621094 173.296875 226.53125 173.238281 226.53125 173.238281 C 226.515625 173.164062 226.605469 173.222656 226.664062 173.132812 C 227.023438 172.671875 227 168.234375 228.46875 166.851562 C 230.402344 165.136719 235.699219 164.472656 238.457031 165.1875 C 240.871094 165.746094 243.746094 167.738281 244.429688 169.511719 C 245.035156 170.914062 243.546875 172.914062 243.738281 174.175781 C 243.851562 175.070312 244.871094 175.542969 244.804688 176.324219 C 244.742188 177.101562 243.386719 177.929688 243.027344 178.769531 C 242.671875 179.613281 243.097656 180.898438 242.621094 181.539062 C 242.144531 182.175781 240.382812 182.550781 240.179688 182.667969 C 240.179688 182.667969 240.105469 182.683594 240.105469 182.683594 C 239.757812 182.835938 235.878906 185.5 234.816406 185.1875 C 234.257812 185.078125 234.242188 183.929688 233.832031 183.789062 C 233.402344 183.574219 232.996094 184.195312 232.347656 184.027344 C 230.785156 183.515625 225.4375 177.453125 225.4375 177.453125 " clip-rule="nonzero"/></clipPath><clipPath id="0e3b8b42b1"><path d="M 0.328125 0.234375 L 20 0.234375 L 20 21.574219 L 0.328125 21.574219 Z M 0.328125 0.234375 " clip-rule="nonzero"/></clipPath><clipPath id="4e90a474f3"><path d="M -1.789062 3.128906 L 18.144531 -1.109375 L 22.339844 18.632812 L 2.410156 22.867188 Z M -1.789062 3.128906 " clip-rule="nonzero"/></clipPath><clipPath id="846f1049ab"><path d="M 0.4375 13.453125 C 1.621094 9.296875 1.53125 9.238281 1.53125 9.238281 C 1.515625 9.164062 1.605469 9.222656 1.664062 9.132812 C 2.023438 8.671875 2 4.234375 3.46875 2.851562 C 5.402344 1.136719 10.699219 0.472656 13.457031 1.1875 C 15.871094 1.746094 18.746094 3.738281 19.429688 5.511719 C 20.035156 6.914062 18.546875 8.914062 18.738281 10.175781 C 18.851562 11.070312 19.871094 11.542969 19.804688 12.324219 C 19.742188 13.101562 18.386719 13.929688 18.027344 14.769531 C 17.671875 15.613281 18.097656 16.898438 17.621094 17.539062 C 17.144531 18.175781 15.382812 18.550781 15.179688 18.667969 C 15.179688 18.667969 15.105469 18.683594 15.105469 18.683594 C 14.757812 18.835938 10.878906 21.5 9.816406 21.1875 C 9.257812 21.078125 9.242188 19.929688 8.832031 19.789062 C 8.402344 19.574219 7.996094 20.195312 7.347656 20.027344 C 5.785156 19.515625 0.4375 13.453125 0.4375 13.453125 " clip-rule="nonzero"/></clipPath><clipPath id="d85cd14c24"><rect x="0" width="20" y="0" height="22"/></clipPath><clipPath id="d5477db5ce"><path d="M 341 190 L 416 190 L 416 274 L 341 274 Z M 341 190 " clip-rule="nonzero"/></clipPath><clipPath id="50707ab0f6"><path d="M 338.601562 192.414062 L 398.609375 179.65625 L 417.773438 269.800781 L 357.761719 282.554688 Z M 338.601562 192.414062 " clip-rule="nonzero"/></clipPath><clipPath id="a5a0bd663f"><path d="M 354.519531 195.898438 C 360.34375 222.925781 364.46875 232.617188 367.003906 238.054688 C 368.527344 241.253906 369.378906 243.449219 371.121094 245.527344 C 372.851562 247.535156 374.820312 248.878906 377.457031 250.464844 C 381.246094 252.796875 388.246094 255.828125 392.347656 257.101562 C 395.0625 257.980469 397.070312 258.78125 399.316406 258.53125 C 401.429688 258.390625 403.988281 257.078125 405.457031 256.078125 C 406.464844 255.402344 406.671875 254.210938 407.722656 253.757812 C 408.921875 253.273438 411.214844 253.246094 412.394531 253.761719 C 413.414062 254.234375 414.234375 255.207031 414.65625 256.113281 C 415.082031 257.019531 415.214844 258.371094 414.960938 259.34375 C 414.78125 260.300781 414.195312 261.496094 413.320312 262.066406 C 412.253906 262.828125 409.984375 263.3125 408.71875 263.121094 C 407.597656 262.898438 406.664062 262.101562 406.019531 261.242188 C 405.394531 260.457031 404.910156 259.257812 405 258.242188 C 405.101562 256.917969 406.03125 254.808594 407.242188 254.011719 C 408.378906 253.234375 410.65625 253.132812 411.96875 253.542969 C 412.957031 253.871094 413.832031 254.757812 414.402344 255.632812 C 414.898438 256.523438 415.246094 257.445312 415.074219 258.78125 C 414.738281 261.535156 411.96875 268.328125 409.378906 270.5625 C 407.519531 272.261719 405.007812 272.335938 402.648438 272.761719 C 400.300781 273.257812 397.894531 273.464844 395.394531 273.230469 C 392.640625 272.894531 389.644531 271.769531 386.824219 270.761719 C 384.007812 269.753906 381.554688 268.664062 378.390625 267.117188 C 374.222656 265.167969 367.722656 262.335938 364.222656 259.558594 C 361.640625 257.5 360.1875 255.359375 358.558594 253.101562 C 357.035156 250.972656 356.164062 249.398438 354.761719 246.402344 C 352.257812 241.113281 347.78125 230.496094 345.699219 223.585938 C 343.988281 218.050781 342.90625 212.613281 342.371094 208.285156 C 341.917969 205.085938 341.332031 202.683594 341.902344 199.957031 C 342.441406 197.085938 344.214844 193.1875 345.800781 191.625 C 346.832031 190.714844 348.136719 190.359375 349.191406 190.289062 C 350.085938 190.175781 350.882812 190.3125 351.59375 190.773438 C 352.539062 191.261719 353.640625 192.484375 354.152344 193.449219 C 354.472656 194.222656 354.519531 195.898438 354.519531 195.898438 " clip-rule="nonzero"/></clipPath><clipPath id="107309e826"><path d="M 0.132812 0.128906 L 74.457031 0.128906 L 74.457031 83.566406 L 0.132812 83.566406 Z M 0.132812 0.128906 " clip-rule="nonzero"/></clipPath><clipPath id="97d668d84e"><path d="M -2.398438 2.414062 L 57.609375 -10.34375 L 76.773438 79.800781 L 16.761719 92.554688 Z M -2.398438 2.414062 " clip-rule="nonzero"/></clipPath><clipPath id="e9b7493971"><path d="M 13.519531 5.898438 C 19.34375 32.925781 23.46875 42.617188 26.003906 48.054688 C 27.527344 51.253906 28.378906 53.449219 30.121094 55.527344 C 31.851562 57.535156 33.820312 58.878906 36.457031 60.464844 C 40.246094 62.796875 47.246094 65.828125 51.347656 67.101562 C 54.0625 67.980469 56.070312 68.78125 58.316406 68.53125 C 60.429688 68.390625 62.988281 67.078125 64.457031 66.078125 C 65.464844 65.402344 65.671875 64.210938 66.722656 63.757812 C 67.921875 63.273438 70.214844 63.246094 71.394531 63.761719 C 72.414062 64.234375 73.234375 65.207031 73.65625 66.113281 C 74.082031 67.019531 74.214844 68.371094 73.960938 69.34375 C 73.78125 70.300781 73.195312 71.496094 72.320312 72.066406 C 71.253906 72.828125 68.984375 73.3125 67.71875 73.121094 C 66.597656 72.898438 65.664062 72.101562 65.019531 71.242188 C 64.394531 70.457031 63.910156 69.257812 64 68.242188 C 64.101562 66.917969 65.03125 64.808594 66.242188 64.011719 C 67.378906 63.234375 69.65625 63.132812 70.96875 63.542969 C 71.957031 63.871094 72.832031 64.757812 73.402344 65.632812 C 73.898438 66.523438 74.246094 67.445312 74.074219 68.78125 C 73.738281 71.535156 70.96875 78.328125 68.378906 80.5625 C 66.519531 82.261719 64.007812 82.335938 61.648438 82.761719 C 59.300781 83.257812 56.894531 83.464844 54.394531 83.230469 C 51.640625 82.894531 48.644531 81.769531 45.824219 80.761719 C 43.007812 79.753906 40.554688 78.664062 37.390625 77.117188 C 33.222656 75.167969 26.722656 72.335938 23.222656 69.558594 C 20.640625 67.5 19.1875 65.359375 17.558594 63.101562 C 16.035156 60.972656 15.164062 59.398438 13.761719 56.402344 C 11.257812 51.113281 6.78125 40.496094 4.699219 33.585938 C 2.988281 28.050781 1.90625 22.613281 1.371094 18.285156 C 0.917969 15.085938 0.332031 12.683594 0.902344 9.957031 C 1.441406 7.085938 3.214844 3.1875 4.800781 1.625 C 5.832031 0.714844 7.136719 0.359375 8.191406 0.289062 C 9.085938 0.175781 9.882812 0.3125 10.59375 0.773438 C 11.539062 1.261719 12.640625 2.484375 13.152344 3.449219 C 13.472656 4.222656 13.519531 5.898438 13.519531 5.898438 " clip-rule="nonzero"/></clipPath><clipPath id="f353a5ee28"><rect x="0" width="75" y="0" height="84"/></clipPath><clipPath id="b75b772f69"><path d="M 388 163 L 406 163 L 406 182 L 388 182 Z M 388 163 " clip-rule="nonzero"/></clipPath><clipPath id="90847625e4"><path d="M 386.605469 164.703125 L 403.582031 161.097656 L 407.5 179.535156 L 390.527344 183.144531 Z M 386.605469 164.703125 " clip-rule="nonzero"/></clipPath><clipPath id="2fc4d9a5b9"><path d="M 402.101562 172.53125 C 398.511719 177.277344 393.652344 177.46875 391.828125 176.09375 C 389.898438 174.589844 388.367188 169.554688 389.210938 167.382812 C 390.125 165.199219 394.84375 162.890625 397.417969 163.109375 C 399.902344 163.273438 403.242188 166.007812 404.5625 168.257812 C 405.777344 170.371094 406.453125 173.90625 405.449219 176.035156 C 404.140625 178.53125 398.820312 181.960938 396.011719 181.71875 C 393.4375 181.5 390.324219 178.023438 389.191406 175.582031 C 388.164062 173.273438 388.136719 169.910156 389.066406 167.796875 C 389.882812 165.863281 391.957031 163.734375 394.066406 163.210938 C 396.453125 162.550781 401.183594 163.535156 402.96875 165.453125 C 404.847656 167.429688 405.847656 172.503906 404.863281 175.085938 C 403.882812 177.667969 399.308594 179.941406 397.21875 180.921875 C 395.964844 181.496094 395.011719 181.699219 393.980469 181.535156 C 393.039062 181.429688 391.839844 180.839844 391.082031 180.160156 C 390.398438 179.464844 389.765625 178.292969 389.621094 177.253906 C 389.492188 176.285156 389.757812 175.003906 390.246094 174.058594 C 390.75 173.183594 391.546875 172.25 392.628906 171.941406 C 393.828125 171.457031 396.136719 171.503906 397.363281 172.238281 C 398.519531 172.988281 399.632812 174.972656 399.691406 176.339844 C 399.753906 177.703125 398.734375 179.757812 397.613281 180.609375 C 396.492188 181.460938 394.230469 181.636719 392.933594 181.296875 C 391.886719 181.0625 390.953125 180.265625 390.441406 179.300781 C 389.808594 178.132812 389.546875 175.8125 389.972656 174.574219 C 390.296875 173.585938 391.179688 172.328125 392.132812 172.125 C 393.46875 171.917969 396.703125 175.976562 397.800781 175.363281 C 398.984375 174.804688 399.46875 168.800781 398.699219 168.429688 C 397.753906 167.941406 391.601562 173.230469 391.925781 174.390625 C 392.273438 175.3125 397.238281 176.324219 398.726562 175.394531 C 400.125 174.40625 401.441406 170.144531 400.585938 168.640625 C 399.609375 166.933594 392.175781 167.289062 392.152344 166.453125 C 392.070312 165.703125 396.074219 164.007812 397.734375 163.886719 C 399.011719 163.769531 400.398438 164.164062 401.300781 164.8125 C 402.207031 165.464844 403.03125 166.820312 403.324219 167.832031 C 403.582031 168.695312 403.535156 169.546875 403.324219 170.359375 C 403.097656 171.09375 402.101562 172.53125 402.101562 172.53125 " clip-rule="nonzero"/></clipPath><clipPath id="528a4cf2de"><path d="M 0.125 0 L 18 0 L 18 18.976562 L 0.125 18.976562 Z M 0.125 0 " clip-rule="nonzero"/></clipPath><clipPath id="4cb6c73993"><path d="M -1.394531 1.703125 L 15.582031 -1.902344 L 19.5 16.535156 L 2.527344 20.144531 Z M -1.394531 1.703125 " clip-rule="nonzero"/></clipPath><clipPath id="01d76cf10d"><path d="M 14.101562 9.53125 C 10.511719 14.277344 5.652344 14.46875 3.828125 13.09375 C 1.898438 11.589844 0.367188 6.554688 1.210938 4.382812 C 2.125 2.199219 6.84375 -0.109375 9.417969 0.109375 C 11.902344 0.273438 15.242188 3.007812 16.5625 5.257812 C 17.777344 7.371094 18.453125 10.90625 17.449219 13.035156 C 16.140625 15.53125 10.820312 18.960938 8.011719 18.71875 C 5.4375 18.5 2.324219 15.023438 1.191406 12.582031 C 0.164062 10.273438 0.136719 6.910156 1.066406 4.796875 C 1.882812 2.863281 3.957031 0.734375 6.066406 0.210938 C 8.453125 -0.449219 13.183594 0.535156 14.96875 2.453125 C 16.847656 4.429688 17.847656 9.503906 16.863281 12.085938 C 15.882812 14.667969 11.308594 16.941406 9.21875 17.921875 C 7.964844 18.496094 7.011719 18.699219 5.980469 18.535156 C 5.039062 18.429688 3.839844 17.839844 3.082031 17.160156 C 2.398438 16.464844 1.765625 15.292969 1.621094 14.253906 C 1.492188 13.285156 1.757812 12.003906 2.246094 11.058594 C 2.75 10.183594 3.546875 9.25 4.628906 8.941406 C 5.828125 8.457031 8.136719 8.503906 9.363281 9.238281 C 10.519531 9.988281 11.632812 11.972656 11.691406 13.339844 C 11.753906 14.703125 10.734375 16.757812 9.613281 17.609375 C 8.492188 18.460938 6.230469 18.636719 4.933594 18.296875 C 3.886719 18.0625 2.953125 17.265625 2.441406 16.300781 C 1.808594 15.132812 1.546875 12.8125 1.972656 11.574219 C 2.296875 10.585938 3.179688 9.328125 4.132812 9.125 C 5.46875 8.917969 8.703125 12.976562 9.800781 12.363281 C 10.984375 11.804688 11.46875 5.800781 10.699219 5.429688 C 9.753906 4.941406 3.601562 10.230469 3.925781 11.390625 C 4.273438 12.3125 9.238281 13.324219 10.726562 12.394531 C 12.125 11.40625 13.441406 7.144531 12.585938 5.640625 C 11.609375 3.933594 4.175781 4.289062 4.152344 3.453125 C 4.070312 2.703125 8.074219 1.007812 9.734375 0.886719 C 11.011719 0.769531 12.398438 1.164062 13.300781 1.8125 C 14.207031 2.464844 15.03125 3.820312 15.324219 4.832031 C 15.582031 5.695312 15.535156 6.546875 15.324219 7.359375 C 15.097656 8.09375 14.101562 9.53125 14.101562 9.53125 " clip-rule="nonzero"/></clipPath><clipPath id="22078d5781"><rect x="0" width="18" y="0" height="19"/></clipPath><clipPath id="cb940f0d67"><path d="M 422 203 L 445 203 L 445 227 L 422 227 Z M 422 203 " clip-rule="nonzero"/></clipPath><clipPath id="c169763c39"><path d="M 420.191406 206.453125 L 441.585938 201.90625 L 446.382812 224.46875 L 424.984375 229.015625 Z M 420.191406 206.453125 " clip-rule="nonzero"/></clipPath><clipPath id="59893efa85"><path d="M 422.160156 215.378906 C 424.402344 211.148438 424.195312 210.886719 424.292969 210.632812 C 424.378906 210.308594 424.90625 210.273438 425.269531 209.816406 C 426.007812 208.96875 426.792969 205.8125 427.832031 205.285156 C 428.589844 204.894531 429.71875 205.882812 430.507812 205.636719 C 431.300781 205.390625 431.753906 203.917969 432.734375 203.859375 C 434.011719 203.742188 436.921875 206.265625 437.75 206.550781 C 438.074219 206.632812 438.207031 206.527344 438.367188 206.570312 C 438.472656 206.703125 438.503906 206.847656 438.679688 206.964844 C 439.15625 207.398438 441.660156 208.015625 442.054688 208.773438 C 442.339844 209.402344 441.601562 210.25 441.757812 210.984375 C 442.03125 211.917969 443.773438 212.546875 444.054688 213.863281 C 444.550781 216.210938 443.875 222.023438 441.796875 224.148438 C 439.707031 226.203125 434.414062 227.25 431.625 226.386719 C 428.855469 225.597656 425.550781 220.863281 424.929688 219.386719 C 424.671875 218.902344 425.007812 218.679688 424.828125 218.179688 C 424.507812 217.40625 422.160156 215.378906 422.160156 215.378906 " clip-rule="nonzero"/></clipPath><clipPath id="0728720f97"><path d="M 0 0.554688 L 22.707031 0.554688 L 22.707031 24 L 0 24 Z M 0 0.554688 " clip-rule="nonzero"/></clipPath><clipPath id="4f5140b1b4"><path d="M -1.808594 3.453125 L 19.585938 -1.09375 L 24.382812 21.46875 L 2.984375 26.015625 Z M -1.808594 3.453125 " clip-rule="nonzero"/></clipPath><clipPath id="8b9d6254da"><path d="M 0.160156 12.378906 C 2.402344 8.148438 2.195312 7.886719 2.292969 7.632812 C 2.378906 7.308594 2.90625 7.273438 3.269531 6.816406 C 4.007812 5.96875 4.792969 2.8125 5.832031 2.285156 C 6.589844 1.894531 7.71875 2.882812 8.507812 2.636719 C 9.300781 2.390625 9.753906 0.917969 10.734375 0.859375 C 12.011719 0.742188 14.921875 3.265625 15.75 3.550781 C 16.074219 3.632812 16.207031 3.527344 16.367188 3.570312 C 16.472656 3.703125 16.503906 3.847656 16.679688 3.964844 C 17.15625 4.398438 19.660156 5.015625 20.054688 5.773438 C 20.339844 6.402344 19.601562 7.25 19.757812 7.984375 C 20.03125 8.917969 21.773438 9.546875 22.054688 10.863281 C 22.550781 13.210938 21.875 19.023438 19.796875 21.148438 C 17.707031 23.203125 12.414062 24.25 9.625 23.386719 C 6.855469 22.597656 3.550781 17.863281 2.929688 16.386719 C 2.671875 15.902344 3.007812 15.679688 2.828125 15.179688 C 2.507812 14.40625 0.160156 12.378906 0.160156 12.378906 " clip-rule="nonzero"/></clipPath><clipPath id="d015562ae0"><rect x="0" width="23" y="0" height="24"/></clipPath><clipPath id="2a18274baa"><path d="M 212 319 L 282 319 L 282 491 L 212 491 Z M 212 319 " clip-rule="nonzero"/></clipPath><clipPath id="6d8fde480a"><path d="M 210.671875 320.835938 L 247.679688 312.96875 L 284.773438 487.460938 L 247.761719 495.328125 Z M 210.671875 320.835938 " clip-rule="nonzero"/></clipPath><clipPath id="51da5e6728"><path d="M 222.867188 322.847656 C 229.226562 334.746094 230.050781 338.25 231.730469 344.710938 C 235.441406 358.933594 241.707031 392.378906 247.121094 413.519531 C 251.851562 431.816406 258.496094 455.144531 261.855469 464.464844 C 263.164062 468.09375 263.296875 470.515625 265.03125 471.832031 C 266.660156 473.019531 270.234375 473.253906 271.625 472.574219 C 272.585938 472.066406 272.625 470.449219 273.414062 469.820312 C 274.199219 469.195312 275.382812 468.636719 276.398438 468.726562 C 277.722656 468.828125 279.847656 469.832031 280.667969 470.804688 C 281.382812 471.648438 281.648438 472.894531 281.632812 473.894531 C 281.613281 474.894531 281.117188 476.148438 280.523438 476.964844 C 279.839844 477.722656 278.761719 478.410156 277.75 478.703125 C 276.800781 478.90625 275.507812 478.949219 274.542969 478.390625 C 273.421875 477.785156 271.828125 476.054688 271.621094 474.722656 C 271.324219 473.328125 272.164062 471.160156 272.960938 470.222656 C 273.703125 469.375 274.902344 468.890625 275.867188 468.761719 C 276.910156 468.617188 278.160156 468.734375 279.066406 469.386719 C 280.148438 470.152344 281.222656 471.609375 281.597656 473.367188 C 282.15625 476.003906 281.574219 481.183594 280.019531 483.964844 C 278.695312 486.390625 276.175781 488.230469 273.664062 489.378906 C 271.003906 490.554688 267.324219 491.261719 264.433594 490.648438 C 261.472656 490.054688 258.390625 487.796875 256.25 485.648438 C 254.210938 483.628906 253.105469 480.953125 251.707031 478.339844 C 250.261719 475.507812 249.433594 473.769531 247.882812 469.351562 C 243.921875 457.933594 235.871094 428.699219 230.339844 406.285156 C 224.054688 381.039062 212.632812 334.519531 212.785156 325.144531 C 212.835938 323.21875 213.078125 322.554688 213.714844 321.578125 C 214.4375 320.65625 215.703125 319.773438 216.804688 319.539062 C 217.976562 319.292969 219.476562 319.507812 220.496094 319.980469 C 221.460938 320.542969 222.867188 322.847656 222.867188 322.847656 " clip-rule="nonzero"/></clipPath><clipPath id="c6c1d0a399"><path d="M 0.621094 0.121094 L 70 0.121094 L 70 172 L 0.621094 172 Z M 0.621094 0.121094 " clip-rule="nonzero"/></clipPath><clipPath id="91bc2621d0"><path d="M -1.328125 1.835938 L 35.679688 -6.03125 L 72.773438 168.460938 L 35.761719 176.328125 Z M -1.328125 1.835938 " clip-rule="nonzero"/></clipPath><clipPath id="78e65e6145"><path d="M 10.867188 3.847656 C 17.226562 15.746094 18.050781 19.25 19.730469 25.710938 C 23.441406 39.933594 29.707031 73.378906 35.121094 94.519531 C 39.851562 112.816406 46.496094 136.144531 49.855469 145.464844 C 51.164062 149.09375 51.296875 151.515625 53.03125 152.832031 C 54.660156 154.019531 58.234375 154.253906 59.625 153.574219 C 60.585938 153.066406 60.625 151.449219 61.414062 150.820312 C 62.199219 150.195312 63.382812 149.636719 64.398438 149.726562 C 65.722656 149.828125 67.847656 150.832031 68.667969 151.804688 C 69.382812 152.648438 69.648438 153.894531 69.632812 154.894531 C 69.613281 155.894531 69.117188 157.148438 68.523438 157.964844 C 67.839844 158.722656 66.761719 159.410156 65.75 159.703125 C 64.800781 159.90625 63.507812 159.949219 62.542969 159.390625 C 61.421875 158.785156 59.828125 157.054688 59.621094 155.722656 C 59.324219 154.328125 60.164062 152.160156 60.960938 151.222656 C 61.703125 150.375 62.902344 149.890625 63.867188 149.761719 C 64.910156 149.617188 66.160156 149.734375 67.066406 150.386719 C 68.148438 151.152344 69.222656 152.609375 69.597656 154.367188 C 70.15625 157.003906 69.574219 162.183594 68.019531 164.964844 C 66.695312 167.390625 64.175781 169.230469 61.664062 170.378906 C 59.003906 171.554688 55.324219 172.261719 52.433594 171.648438 C 49.472656 171.054688 46.390625 168.796875 44.25 166.648438 C 42.210938 164.628906 41.105469 161.953125 39.707031 159.339844 C 38.261719 156.507812 37.433594 154.769531 35.882812 150.351562 C 31.921875 138.933594 23.871094 109.699219 18.339844 87.285156 C 12.054688 62.039062 0.632812 15.519531 0.785156 6.144531 C 0.835938 4.21875 1.078125 3.554688 1.714844 2.578125 C 2.4375 1.65625 3.703125 0.773438 4.804688 0.539062 C 5.976562 0.292969 7.476562 0.507812 8.496094 0.980469 C 9.460938 1.542969 10.867188 3.847656 10.867188 3.847656 " clip-rule="nonzero"/></clipPath><clipPath id="a3969f0564"><rect x="0" width="70" y="0" height="172"/></clipPath><clipPath id="1cd80cec91"><path d="M 266 313 L 327 313 L 327 440 L 266 440 Z M 266 313 " clip-rule="nonzero"/></clipPath><clipPath id="2020d5a25d"><path d="M 261.382812 315.230469 L 302.359375 306.519531 L 329.695312 435.121094 L 288.71875 443.832031 Z M 261.382812 315.230469 " clip-rule="nonzero"/></clipPath><clipPath id="6498474c13"><path d="M 277.839844 317.675781 C 282.726562 335.632812 285.585938 357.007812 287.503906 366.023438 C 288.457031 370.875 289.023438 372.820312 290.164062 377.097656 C 291.660156 383.0625 293.867188 391.632812 296.0625 398.367188 C 298.152344 404.585938 300.734375 411.695312 303.035156 416.035156 C 304.375 418.734375 305.113281 421.488281 307.125 422.289062 C 309.148438 423.160156 313.230469 421.832031 315.347656 420.617188 C 317.167969 419.464844 317.808594 416.339844 319.429688 415.6875 C 320.835938 415.085938 323 415.542969 324.125 416.148438 C 325.085938 416.707031 325.761719 417.714844 326.125 418.707031 C 326.472656 419.628906 326.445312 420.9375 326.191406 421.910156 C 325.867188 422.898438 325.085938 423.910156 324.226562 424.550781 C 323.425781 425.105469 322.121094 425.457031 321.121094 425.441406 C 320.105469 425.351562 318.941406 424.910156 318.109375 424.242188 C 317.351562 423.5625 316.605469 422.570312 316.460938 421.527344 C 316.253906 420.195312 316.695312 417.957031 317.625 416.914062 C 318.625 415.859375 320.792969 415.246094 322.117188 415.347656 C 323.203125 415.421875 324.269531 416.117188 324.972656 416.886719 C 325.730469 417.566406 326.285156 418.75 326.34375 419.734375 C 326.488281 420.777344 326.203125 421.601562 325.71875 422.929688 C 324.652344 425.839844 322.035156 432.984375 318.777344 435.667969 C 315.851562 438.128906 311.238281 439.492188 307.664062 439.253906 C 304.402344 439.027344 300.878906 436.867188 298.222656 434.828125 C 295.65625 432.84375 293.667969 429.972656 291.78125 427.234375 C 289.882812 424.421875 288.628906 421.777344 287.070312 418.046875 C 284.773438 412.636719 282.222656 404.601562 280.109375 397.542969 C 277.859375 390.207031 275.945312 383.722656 274.03125 374.707031 C 271.4375 362.160156 267.5 338.945312 266.878906 328.8125 C 266.597656 323.894531 266.671875 320.277344 267.421875 317.667969 C 267.800781 316.207031 268.273438 315.1875 269.101562 314.398438 C 270 313.59375 271.507812 313.121094 272.640625 313.035156 C 273.476562 313.007812 274.304688 313.292969 275.070312 313.667969 C 275.765625 314.054688 276.507812 314.664062 276.957031 315.332031 C 277.40625 316.003906 277.839844 317.675781 277.839844 317.675781 " clip-rule="nonzero"/></clipPath><clipPath id="b2f9036120"><path d="M 0.566406 0 L 60.507812 0 L 60.507812 126.71875 L 0.566406 126.71875 Z M 0.566406 0 " clip-rule="nonzero"/></clipPath><clipPath id="eee1444cdd"><path d="M -4.617188 2.230469 L 36.359375 -6.480469 L 63.695312 122.121094 L 22.71875 130.832031 Z M -4.617188 2.230469 " clip-rule="nonzero"/></clipPath><clipPath id="9424058696"><path d="M 11.839844 4.675781 C 16.726562 22.632812 19.585938 44.007812 21.503906 53.023438 C 22.457031 57.875 23.023438 59.820312 24.164062 64.097656 C 25.660156 70.0625 27.867188 78.632812 30.0625 85.367188 C 32.152344 91.585938 34.734375 98.695312 37.035156 103.035156 C 38.375 105.734375 39.113281 108.488281 41.125 109.289062 C 43.148438 110.160156 47.230469 108.832031 49.347656 107.617188 C 51.167969 106.464844 51.808594 103.339844 53.429688 102.6875 C 54.835938 102.085938 57 102.542969 58.125 103.148438 C 59.085938 103.707031 59.761719 104.714844 60.125 105.707031 C 60.472656 106.628906 60.445312 107.9375 60.191406 108.910156 C 59.867188 109.898438 59.085938 110.910156 58.226562 111.550781 C 57.425781 112.105469 56.121094 112.457031 55.121094 112.441406 C 54.105469 112.351562 52.941406 111.910156 52.109375 111.242188 C 51.351562 110.5625 50.605469 109.570312 50.460938 108.527344 C 50.253906 107.195312 50.695312 104.957031 51.625 103.914062 C 52.625 102.859375 54.792969 102.246094 56.117188 102.347656 C 57.203125 102.421875 58.269531 103.117188 58.972656 103.886719 C 59.730469 104.566406 60.285156 105.75 60.34375 106.734375 C 60.488281 107.777344 60.203125 108.601562 59.71875 109.929688 C 58.652344 112.839844 56.035156 119.984375 52.777344 122.667969 C 49.851562 125.128906 45.238281 126.492188 41.664062 126.253906 C 38.402344 126.027344 34.878906 123.867188 32.222656 121.828125 C 29.65625 119.84375 27.667969 116.972656 25.78125 114.234375 C 23.882812 111.421875 22.628906 108.777344 21.070312 105.046875 C 18.773438 99.636719 16.222656 91.601562 14.109375 84.542969 C 11.859375 77.207031 9.945312 70.722656 8.03125 61.707031 C 5.4375 49.160156 1.5 25.945312 0.878906 15.8125 C 0.597656 10.894531 0.671875 7.277344 1.421875 4.667969 C 1.800781 3.207031 2.273438 2.1875 3.101562 1.398438 C 4 0.59375 5.507812 0.121094 6.640625 0.0351562 C 7.476562 0.0078125 8.304688 0.292969 9.070312 0.667969 C 9.765625 1.054688 10.507812 1.664062 10.957031 2.332031 C 11.40625 3.003906 11.839844 4.675781 11.839844 4.675781 " clip-rule="nonzero"/></clipPath><clipPath id="c82c875c80"><rect x="0" width="61" y="0" height="127"/></clipPath><clipPath id="cdc306efa4"><path d="M 360 309 L 406 309 L 406 481 L 360 481 Z M 360 309 " clip-rule="nonzero"/></clipPath><clipPath id="4cd03aef56"><path d="M 344.261719 314.074219 L 372.882812 307.992188 L 408.792969 476.921875 L 380.171875 483.003906 Z M 344.261719 314.074219 " clip-rule="nonzero"/></clipPath><clipPath id="6c85419d51"><path d="M 371.527344 314.460938 C 380.058594 362.894531 382.871094 375.394531 385.863281 388.394531 C 389.101562 402.183594 393.082031 418.035156 396.589844 430.925781 C 399.40625 441.660156 404.683594 453.867188 404.996094 460.390625 C 405.152344 463.648438 404.421875 465.261719 403.554688 467.667969 C 402.644531 470.234375 401.535156 473.304688 399.550781 475.488281 C 397.488281 477.6875 394.183594 480.152344 391.292969 480.613281 C 388.550781 481.042969 385.136719 480.46875 382.835938 478.65625 C 379.972656 476.355469 377.105469 469 376.734375 466.167969 C 376.601562 464.816406 376.867188 463.917969 377.355469 462.972656 C 377.859375 462.097656 378.746094 461.21875 379.742188 460.855469 C 380.648438 460.433594 381.925781 460.316406 382.96875 460.550781 C 383.925781 460.730469 385.050781 461.335938 385.710938 462.269531 C 386.398438 463.347656 387.027344 465.585938 386.617188 466.898438 C 386.207031 468.214844 384.640625 469.847656 383.277344 470.292969 C 381.992188 470.71875 379.71875 470.128906 378.652344 469.4375 C 377.75 468.785156 377.078125 467.78125 376.84375 466.679688 C 376.652344 465.417969 377.167969 463.164062 377.933594 462.082031 C 378.601562 461.25 379.695312 460.636719 380.734375 460.492188 C 382.085938 460.355469 384.195312 460.90625 385.308594 461.816406 C 386.363281 462.816406 386.566406 466.296875 387.242188 466.230469 C 388.078125 466.207031 388.457031 459.691406 389.703125 459.425781 C 391.035156 459.21875 394.882812 465.066406 394.882812 465.066406 C 394.957031 465.050781 389.980469 460.746094 388.074219 457.167969 C 385.1875 451.882812 384.042969 443.625 381.734375 434.925781 C 378.5625 422.882812 374.410156 406.222656 371.207031 391.507812 C 367.835938 376.371094 364.0625 357.179688 362.195312 345.167969 C 361.03125 337.523438 360.097656 332.054688 360.0625 326.472656 C 359.992188 321.8125 360.265625 316.621094 361.144531 313.910156 C 361.671875 312.417969 362.144531 311.398438 363.074219 310.742188 C 363.992188 310.007812 365.425781 309.550781 366.589844 309.609375 C 367.75 309.671875 369.183594 310.285156 369.972656 311.113281 C 370.761719 311.941406 371.527344 314.460938 371.527344 314.460938 " clip-rule="nonzero"/></clipPath><clipPath id="9f24c3e2d0"><path d="M 0 0.53125 L 45.386719 0.53125 L 45.386719 172 L 0 172 Z M 0 0.53125 " clip-rule="nonzero"/></clipPath><clipPath id="08473d06af"><path d="M -15.738281 5.074219 L 12.882812 -1.007812 L 48.792969 167.921875 L 20.171875 174.003906 Z M -15.738281 5.074219 " clip-rule="nonzero"/></clipPath><clipPath id="4d9db6feaf"><path d="M 11.527344 5.460938 C 20.058594 53.894531 22.871094 66.394531 25.863281 79.394531 C 29.101562 93.183594 33.082031 109.035156 36.589844 121.925781 C 39.40625 132.660156 44.683594 144.867188 44.996094 151.390625 C 45.152344 154.648438 44.421875 156.261719 43.554688 158.667969 C 42.644531 161.234375 41.535156 164.304688 39.550781 166.488281 C 37.488281 168.6875 34.183594 171.152344 31.292969 171.613281 C 28.550781 172.042969 25.136719 171.46875 22.835938 169.65625 C 19.972656 167.355469 17.105469 160 16.734375 157.167969 C 16.601562 155.816406 16.867188 154.917969 17.355469 153.972656 C 17.859375 153.097656 18.746094 152.21875 19.742188 151.855469 C 20.648438 151.433594 21.925781 151.316406 22.96875 151.550781 C 23.925781 151.730469 25.050781 152.335938 25.710938 153.269531 C 26.398438 154.347656 27.027344 156.585938 26.617188 157.898438 C 26.207031 159.214844 24.640625 160.847656 23.277344 161.292969 C 21.992188 161.71875 19.71875 161.128906 18.652344 160.4375 C 17.75 159.785156 17.078125 158.78125 16.84375 157.679688 C 16.652344 156.417969 17.167969 154.164062 17.933594 153.082031 C 18.601562 152.25 19.695312 151.636719 20.734375 151.492188 C 22.085938 151.355469 24.195312 151.90625 25.308594 152.816406 C 26.363281 153.816406 26.566406 157.296875 27.242188 157.230469 C 28.078125 157.207031 28.457031 150.691406 29.703125 150.425781 C 31.035156 150.21875 34.882812 156.066406 34.882812 156.066406 C 34.957031 156.050781 29.980469 151.746094 28.074219 148.167969 C 25.1875 142.882812 24.042969 134.625 21.734375 125.925781 C 18.5625 113.882812 14.410156 97.222656 11.207031 82.507812 C 7.835938 67.371094 4.0625 48.179688 2.195312 36.167969 C 1.03125 28.523438 0.0976562 23.054688 0.0625 17.472656 C -0.0078125 12.8125 0.265625 7.621094 1.144531 4.910156 C 1.671875 3.417969 2.144531 2.398438 3.074219 1.742188 C 3.992188 1.007812 5.425781 0.550781 6.589844 0.609375 C 7.75 0.671875 9.183594 1.285156 9.972656 2.113281 C 10.761719 2.941406 11.527344 5.460938 11.527344 5.460938 " clip-rule="nonzero"/></clipPath><clipPath id="03cae021f0"><rect x="0" width="46" y="0" height="172"/></clipPath><clipPath id="bfba2af5a6"><path d="M 398 313 L 433 313 L 433 420 L 398 420 Z M 398 313 " clip-rule="nonzero"/></clipPath><clipPath id="8ce5ee3922"><path d="M 395.496094 314.609375 L 416.707031 310.101562 L 439.117188 415.535156 L 417.90625 420.042969 Z M 395.496094 314.609375 " clip-rule="nonzero"/></clipPath><clipPath id="397085b25e"><path d="M 408.195312 316.164062 C 415.925781 327.3125 419.375 336.6875 421.902344 343.890625 C 424.292969 350.8125 426.300781 357.738281 428 364.652344 C 429.65625 371.347656 431.265625 378.207031 431.960938 384.722656 C 432.636719 390.785156 432.789062 397.261719 432.570312 402.363281 C 432.398438 406.230469 432.777344 409.828125 431.355469 412.503906 C 429.976562 415.019531 426.492188 417.367188 424.402344 418.347656 C 423.144531 418.921875 421.867188 419.039062 420.925781 418.933594 C 420.058594 418.8125 419.289062 418.4375 418.707031 417.871094 C 417.949219 417.191406 417.054688 415.851562 416.894531 414.734375 C 416.75 413.695312 417.039062 412.175781 417.617188 411.289062 C 418.25 410.308594 419.445312 409.445312 420.457031 409.152344 C 421.449219 408.789062 422.699219 408.90625 423.6875 409.230469 C 424.605469 409.574219 425.6875 410.339844 426.199219 411.300781 C 426.8125 412.398438 426.929688 414.746094 426.503906 415.984375 C 426.195312 417.046875 425.21875 417.867188 424.328125 418.363281 C 423.4375 418.859375 422.207031 419.199219 421.160156 418.960938 C 419.878906 418.695312 417.996094 417.410156 417.351562 416.171875 C 416.777344 414.914062 416.984375 412.648438 417.5 411.464844 C 417.972656 410.445312 418.949219 409.625 419.957031 409.335938 C 421.171875 408.921875 423.511719 409.117188 424.636719 409.71875 C 425.582031 410.207031 426.34375 411.269531 426.707031 412.265625 C 426.984375 413.203125 427.03125 414.496094 426.703125 415.484375 C 426.449219 416.457031 424.792969 418.035156 424.808594 418.109375 C 424.882812 418.09375 426.203125 416.738281 426.1875 416.664062 C 426.101562 416.609375 424.359375 418.511719 423.277344 418.816406 C 422.191406 419.125 420.707031 418.980469 419.757812 418.492188 C 418.738281 418.019531 417.726562 416.855469 417.230469 415.964844 C 416.914062 415.191406 416.800781 414.296875 416.863281 413.515625 C 416.925781 412.738281 417.683594 411.964844 417.617188 411.289062 C 417.605469 410.523438 416.617188 410.199219 416.382812 409.097656 C 415.824219 406.460938 417.886719 399.585938 417.882812 394.53125 C 417.835938 389.257812 417.0625 383.828125 416.15625 378.125 C 415.140625 371.90625 413.953125 365.953125 411.839844 358.894531 C 409.128906 349.746094 402.566406 335.4375 400.421875 328.234375 C 399.300781 324.410156 398.546875 321.585938 398.503906 319.21875 C 398.429688 317.78125 398.5625 316.601562 399.121094 315.640625 C 399.683594 314.679688 400.863281 313.738281 401.929688 313.359375 C 403.089844 313.035156 404.558594 313.105469 405.652344 313.5625 C 406.671875 314.035156 408.195312 316.164062 408.195312 316.164062 " clip-rule="nonzero"/></clipPath><clipPath id="53ab5ce808"><path d="M 0.195312 0 L 34.960938 0 L 34.960938 106.339844 L 0.195312 106.339844 Z M 0.195312 0 " clip-rule="nonzero"/></clipPath><clipPath id="3367f85e84"><path d="M -2.503906 1.609375 L 18.707031 -2.898438 L 41.117188 102.535156 L 19.90625 107.042969 Z M -2.503906 1.609375 " clip-rule="nonzero"/></clipPath><clipPath id="8a34e6abe8"><path d="M 10.195312 3.164062 C 17.925781 14.3125 21.375 23.6875 23.902344 30.890625 C 26.292969 37.8125 28.300781 44.738281 30 51.652344 C 31.65625 58.347656 33.265625 65.207031 33.960938 71.722656 C 34.636719 77.785156 34.789062 84.261719 34.570312 89.363281 C 34.398438 93.230469 34.777344 96.828125 33.355469 99.503906 C 31.976562 102.019531 28.492188 104.367188 26.402344 105.347656 C 25.144531 105.921875 23.867188 106.039062 22.925781 105.933594 C 22.058594 105.8125 21.289062 105.4375 20.707031 104.871094 C 19.949219 104.191406 19.054688 102.851562 18.894531 101.734375 C 18.75 100.695312 19.039062 99.175781 19.617188 98.289062 C 20.25 97.308594 21.445312 96.445312 22.457031 96.152344 C 23.449219 95.789062 24.699219 95.90625 25.6875 96.230469 C 26.605469 96.574219 27.6875 97.339844 28.199219 98.300781 C 28.8125 99.398438 28.929688 101.746094 28.503906 102.984375 C 28.195312 104.046875 27.21875 104.867188 26.328125 105.363281 C 25.4375 105.859375 24.207031 106.199219 23.160156 105.960938 C 21.878906 105.695312 19.996094 104.410156 19.351562 103.171875 C 18.777344 101.914062 18.984375 99.648438 19.5 98.464844 C 19.972656 97.445312 20.949219 96.625 21.957031 96.335938 C 23.171875 95.921875 25.511719 96.117188 26.636719 96.71875 C 27.582031 97.207031 28.34375 98.269531 28.707031 99.265625 C 28.984375 100.203125 29.03125 101.496094 28.703125 102.484375 C 28.449219 103.457031 26.792969 105.035156 26.808594 105.109375 C 26.882812 105.09375 28.203125 103.738281 28.1875 103.664062 C 28.101562 103.609375 26.359375 105.511719 25.277344 105.816406 C 24.191406 106.125 22.707031 105.980469 21.757812 105.492188 C 20.738281 105.019531 19.726562 103.855469 19.230469 102.964844 C 18.914062 102.191406 18.800781 101.296875 18.863281 100.515625 C 18.925781 99.738281 19.683594 98.964844 19.617188 98.289062 C 19.605469 97.523438 18.617188 97.199219 18.382812 96.097656 C 17.824219 93.460938 19.886719 86.585938 19.882812 81.53125 C 19.835938 76.257812 19.0625 70.828125 18.15625 65.125 C 17.140625 58.90625 15.953125 52.953125 13.839844 45.894531 C 11.128906 36.746094 4.566406 22.4375 2.421875 15.234375 C 1.300781 11.410156 0.546875 8.585938 0.503906 6.21875 C 0.429688 4.78125 0.5625 3.601562 1.121094 2.640625 C 1.683594 1.679688 2.863281 0.738281 3.929688 0.359375 C 5.089844 0.0351562 6.558594 0.105469 7.652344 0.5625 C 8.671875 1.035156 10.195312 3.164062 10.195312 3.164062 " clip-rule="nonzero"/></clipPath><clipPath id="08b906fa7c"><rect x="0" width="35" y="0" height="107"/></clipPath></defs><g clip-path="url(#fcfcf87373)"><g clip-path="url(#1ca6b3c5ee)"><g clip-path="url(#43d97c2b75)"><g clip-path="url(#f45234cac4)"><path fill="#000000" d="M 94.816406 295.804688 L 94.890625 295.832031 L 95.214844 295.976562 C 133.933594 312.953125 233.203125 315.601562 308.789062 312.679688 C 311.144531 282.851562 320.410156 148.667969 300.871094 98.609375 L 300.726562 98.234375 C 297.136719 89.195312 291.890625 81.046875 285.132812 74.003906 C 256.535156 44.207031 209.035156 43.222656 179.253906 71.804688 C 159.753906 90.519531 162.058594 129.707031 169.964844 157.609375 L 174.515625 172.78125 L 159.539062 167.601562 C 131.992188 158.5625 92.925781 154.648438 73.425781 173.359375 C 43.644531 201.945312 42.679688 249.441406 71.277344 279.242188 C 78.027344 286.273438 85.945312 291.847656 94.816406 295.804688 Z M 321.046875 328.152344 L 314.167969 326.03125 C 285.152344 327.257812 143.898438 331.859375 90.097656 308.53125 L 90.007812 308.5 L 89.699219 308.363281 C 79.058594 303.675781 69.570312 297.035156 61.5 288.625 C 27.722656 253.433594 28.863281 197.335938 64.039062 163.578125 C 85.667969 142.820312 123.386719 143.636719 154.5625 151.984375 C 147.5 120.496094 148.238281 82.777344 169.867188 62.023438 C 205.039062 28.265625 261.136719 29.429688 294.910156 64.621094 C 302.984375 73.03125 309.230469 82.785156 313.476562 93.609375 L 313.632812 94.039062 C 336.53125 153.464844 322.414062 313.050781 321.796875 319.828125 L 321.046875 328.152344 " fill-opacity="1" fill-rule="nonzero"/></g></g></g></g><g clip-path="url(#65508c0aab)"><g clip-path="url(#f2bf3e230f)"><g clip-path="url(#8eb59decf6)"><g clip-path="url(#4bea3a0583)"><path fill="#000000" d="M 331.203125 99.660156 L 331.183594 99.738281 L 331.0625 100.074219 C 317.03125 139.953125 321.8125 239.140625 330.378906 314.296875 C 360.300781 314.414062 494.800781 313.617188 543.257812 290.386719 L 543.625 290.21875 C 552.367188 285.960938 560.101562 280.121094 566.617188 272.855469 C 594.195312 242.105469 591.625 194.667969 560.890625 167.109375 C 540.769531 149.0625 501.863281 154.292969 474.632812 164.261719 L 459.84375 169.933594 L 463.886719 154.613281 C 470.84375 126.464844 471.824219 87.21875 451.703125 69.171875 C 420.972656 41.609375 373.535156 44.199219 345.960938 74.949219 C 339.449219 82.207031 334.484375 90.519531 331.203125 99.660156 Z M 315.867188 327.675781 L 317.46875 320.660156 C 314.078125 291.816406 298.921875 151.304688 318.160156 95.90625 L 318.183594 95.8125 L 318.296875 95.496094 C 322.171875 84.535156 328.085938 74.578125 335.871094 65.898438 C 368.4375 29.585938 424.460938 26.527344 460.757812 59.078125 C 483.074219 79.097656 485.082031 116.769531 479.089844 148.484375 C 509.960938 139.085938 547.628906 137 569.945312 157.015625 C 606.238281 189.566406 609.273438 245.589844 576.707031 281.902344 C 568.921875 290.582031 559.664062 297.539062 549.191406 302.585938 L 548.769531 302.773438 C 491.226562 330.050781 331.03125 327.910156 324.226562 327.804688 L 315.867188 327.675781 " fill-opacity="1" fill-rule="nonzero"/></g></g></g></g><g clip-path="url(#a25474b011)"><g clip-path="url(#ce7b5e5928)"><g clip-path="url(#f548acaed0)"><g transform="matrix(1, 0, 0, 1, 206, 202)"><g clip-path="url(#6e9d1687f5)"><g clip-path="url(#a07a0010fb)"><g clip-path="url(#324c9b1af5)"><g clip-path="url(#1209f82216)"><path fill="#1e1e1e" d="M -10.070312 13.207031 L 74.0625 -4.675781 L 88.828125 64.800781 L 4.695312 82.683594 Z M -10.070312 13.207031 " fill-opacity="1" fill-rule="nonzero"/></g></g></g></g></g></g></g></g><g clip-path="url(#536cc0d0b2)"><g clip-path="url(#8f2a322104)"><g clip-path="url(#049b30fc00)"><g transform="matrix(1, 0, 0, 1, 181, 196)"><g clip-path="url(#6409248537)"><g clip-path="url(#ba9eb6dcd6)"><g clip-path="url(#e6f42f0c0a)"><g clip-path="url(#b10cc73a1e)"><path fill="#1e1e1e" d="M -4.214844 0.144531 L 19.019531 -4.792969 L 24.632812 21.613281 L 1.398438 26.550781 Z M -4.214844 0.144531 " fill-opacity="1" fill-rule="nonzero"/></g></g></g></g></g></g></g></g><g clip-path="url(#9397789009)"><g clip-path="url(#ec4596ef09)"><g clip-path="url(#83207bd877)"><g transform="matrix(1, 0, 0, 1, 225, 164)"><g clip-path="url(#d85cd14c24)"><g clip-path="url(#0e3b8b42b1)"><g clip-path="url(#4e90a474f3)"><g clip-path="url(#846f1049ab)"><path fill="#1e1e1e" d="M -5.144531 1.617188 L 20.597656 -3.851562 L 25.863281 20.917969 L 0.121094 26.390625 Z M -5.144531 1.617188 " fill-opacity="1" fill-rule="nonzero"/></g></g></g></g></g></g></g></g><g clip-path="url(#d5477db5ce)"><g clip-path="url(#50707ab0f6)"><g clip-path="url(#a5a0bd663f)"><g transform="matrix(1, 0, 0, 1, 341, 190)"><g clip-path="url(#f353a5ee28)"><g clip-path="url(#107309e826)"><g clip-path="url(#97d668d84e)"><g clip-path="url(#e9b7493971)"><path fill="#1e1e1e" d="M -5.550781 0.148438 L 59.824219 -13.75 L 80.179688 82.011719 L 14.804688 95.90625 Z M -5.550781 0.148438 " fill-opacity="1" fill-rule="nonzero"/></g></g></g></g></g></g></g></g><g clip-path="url(#b75b772f69)"><g clip-path="url(#90847625e4)"><g clip-path="url(#2fc4d9a5b9)"><g transform="matrix(1, 0, 0, 1, 388, 163)"><g clip-path="url(#22078d5781)"><g clip-path="url(#528a4cf2de)"><g clip-path="url(#4cb6c73993)"><g clip-path="url(#01d76cf10d)"><path fill="#1e1e1e" d="M -4.667969 -0.570312 L 17.390625 -5.261719 L 22.5 18.78125 L 0.441406 23.46875 Z M -4.667969 -0.570312 " fill-opacity="1" fill-rule="nonzero"/></g></g></g></g></g></g></g></g><g clip-path="url(#cb940f0d67)"><g clip-path="url(#c169763c39)"><g clip-path="url(#59893efa85)"><g transform="matrix(1, 0, 0, 1, 422, 203)"><g clip-path="url(#d015562ae0)"><g clip-path="url(#0728720f97)"><g clip-path="url(#4f5140b1b4)"><g clip-path="url(#8b9d6254da)"><path fill="#1e1e1e" d="M -5.277344 1.203125 L 21.839844 -4.5625 L 27.625 22.660156 L 0.507812 28.421875 Z M -5.277344 1.203125 " fill-opacity="1" fill-rule="nonzero"/></g></g></g></g></g></g></g></g><g clip-path="url(#2a18274baa)"><g clip-path="url(#6d8fde480a)"><g clip-path="url(#51da5e6728)"><g transform="matrix(1, 0, 0, 1, 212, 319)"><g clip-path="url(#a3969f0564)"><g clip-path="url(#c6c1d0a399)"><g clip-path="url(#91bc2621d0)"><g clip-path="url(#78e65e6145)"><path fill="#1e1e1e" d="M -3.734375 -0.707031 L 37.820312 -9.542969 L 76.082031 170.472656 L 34.53125 179.304688 Z M -3.734375 -0.707031 " fill-opacity="1" fill-rule="nonzero"/></g></g></g></g></g></g></g></g><g clip-path="url(#1cd80cec91)"><g clip-path="url(#2020d5a25d)"><g clip-path="url(#6498474c13)"><g transform="matrix(1, 0, 0, 1, 266, 313)"><g clip-path="url(#c82c875c80)"><g clip-path="url(#b2f9036120)"><g clip-path="url(#eee1444cdd)"><g clip-path="url(#9424058696)"><path fill="#1e1e1e" d="M -8.128906 0.109375 L 38.703125 -9.84375 L 67.128906 123.878906 L 20.296875 133.832031 Z M -8.128906 0.109375 " fill-opacity="1" fill-rule="nonzero"/></g></g></g></g></g></g></g></g><g clip-path="url(#cdc306efa4)"><g clip-path="url(#4cd03aef56)"><g clip-path="url(#6c85419d51)"><g transform="matrix(1, 0, 0, 1, 360, 309)"><g clip-path="url(#03cae021f0)"><g clip-path="url(#9f24c3e2d0)"><g clip-path="url(#08473d06af)"><g clip-path="url(#4d9db6feaf)"><path fill="#1e1e1e" d="M -19.097656 3.007812 L 14.980469 -4.238281 L 52.078125 170.285156 L 17.996094 177.527344 Z M -19.097656 3.007812 " fill-opacity="1" fill-rule="nonzero"/></g></g></g></g></g></g></g></g><g clip-path="url(#bfba2af5a6)"><g clip-path="url(#8ce5ee3922)"><g clip-path="url(#397085b25e)"><g transform="matrix(1, 0, 0, 1, 398, 313)"><g clip-path="url(#08b906fa7c)"><g clip-path="url(#53ab5ce808)"><g clip-path="url(#3367f85e84)"><g clip-path="url(#8a34e6abe8)"><path fill="#1e1e1e" d="M -5.925781 -0.609375 L 20.824219 -6.296875 L 44.433594 104.777344 L 17.683594 110.464844 Z M -5.925781 -0.609375 " fill-opacity="1" fill-rule="nonzero"/></g></g></g></g></g></g></g></g></svg>