<svg xmlns="http://www.w3.org/2000/svg" xmlns:xlink="http://www.w3.org/1999/xlink" width="342" zoomAndPan="magnify" viewBox="0 0 256.5 201.000001" height="268" preserveAspectRatio="xMidYMid meet" version="1.0"><defs><clipPath id="d51082fbd8"><path d="M 15 15 L 132 15 L 132 132 L 15 132 Z M 15 15 " clip-rule="nonzero"/></clipPath><clipPath id="653c4e23f1"><path d="M 0.386719 90.246094 L 94.074219 0.332031 L 176.238281 85.945312 L 82.550781 175.859375 Z M 0.386719 90.246094 " clip-rule="nonzero"/></clipPath><clipPath id="5c0d9f288c"><path d="M 0.386719 90.246094 L 94.074219 0.332031 L 176.238281 85.945312 L 82.550781 175.859375 Z M 0.386719 90.246094 " clip-rule="nonzero"/></clipPath><clipPath id="63a8e387b9"><path d="M 124 14 L 241 14 L 241 132 L 124 132 Z M 124 14 " clip-rule="nonzero"/></clipPath><clipPath id="ecc16f01e0"><path d="M 158.777344 0 L 255.449219 86.699219 L 175.722656 175.59375 L 79.054688 88.894531 Z M 158.777344 0 " clip-rule="nonzero"/></clipPath><clipPath id="8f01a12316"><path d="M 158.777344 0 L 255.449219 86.699219 L 175.722656 175.59375 L 79.054688 88.894531 Z M 158.777344 0 " clip-rule="nonzero"/></clipPath><clipPath id="967e2bbaaf"><path d="M 83 81 L 113 81 L 113 111 L 83 111 Z M 83 81 " clip-rule="nonzero"/></clipPath><clipPath id="2e5e318fff"><path d="M 80.261719 87.226562 L 111.742188 80.535156 L 117.203125 106.242188 L 85.726562 112.933594 Z M 80.261719 87.226562 " clip-rule="nonzero"/></clipPath><clipPath id="d1a3d8cefd"><path d="M 88.152344 100.492188 C 92.78125 103.75 93.867188 104.226562 94.984375 104.417969 C 96.027344 104.566406 97.21875 104.527344 98.238281 104.25 C 99.222656 103.976562 100.148438 103.414062 100.949219 102.84375 C 101.722656 102.277344 102.316406 101.597656 102.949219 100.820312 C 103.65625 99.960938 104.351562 98.890625 104.871094 97.859375 C 105.441406 96.785156 105.882812 95.828125 106.214844 94.5 C 106.613281 92.753906 106.757812 89.957031 106.789062 88.230469 C 106.816406 87.054688 106.511719 86.199219 106.671875 85.210938 C 106.789062 84.171875 107.25 82.71875 107.664062 82.078125 C 107.875 81.757812 108.054688 81.597656 108.359375 81.4375 C 108.753906 81.261719 109.375 81.160156 109.789062 81.226562 C 110.136719 81.277344 110.417969 81.433594 110.65625 81.6875 C 110.960938 81.960938 111.410156 82.480469 111.351562 82.925781 C 111.25 83.621094 109.765625 85.167969 109.070312 85.222656 C 108.53125 85.277344 107.773438 84.609375 107.511719 84.109375 C 107.28125 83.605469 107.300781 82.679688 107.574219 82.222656 C 107.867188 81.726562 108.664062 81.28125 109.199219 81.199219 C 109.617188 81.140625 110.109375 81.28125 110.4375 81.519531 C 110.792969 81.753906 111.121094 82.144531 111.261719 82.511719 C 111.378906 82.917969 111.457031 83.425781 111.296875 83.828125 C 111.089844 84.300781 110.464844 84.988281 109.921875 85.164062 C 109.398438 85.308594 108.5 85.128906 108.058594 84.792969 C 107.609375 84.425781 107.304688 83.570312 107.316406 83.042969 C 107.316406 82.613281 107.558594 82.164062 107.832031 81.859375 C 108.105469 81.554688 108.910156 81.136719 108.988281 81.214844 C 109.078125 81.347656 107.488281 83.5625 107.324219 83.503906 C 107.257812 83.488281 107.289062 83.203125 107.339844 83.007812 C 107.394531 82.6875 107.683594 82.011719 107.960938 81.738281 C 108.210938 81.46875 108.523438 81.34375 108.8125 81.25 C 109.132812 81.183594 109.5 81.167969 109.789062 81.226562 C 110.117188 81.3125 110.347656 81.386719 110.65625 81.6875 C 111.304688 82.289062 112.441406 84.015625 112.796875 85.539062 C 113.269531 87.464844 112.746094 90.5 112.539062 92.417969 C 112.378906 93.835938 112.15625 94.957031 111.875 96.09375 C 111.625 97.097656 111.441406 97.816406 110.933594 98.90625 C 110.191406 100.476562 108.515625 103.140625 107.488281 104.527344 C 106.789062 105.445312 106.3125 105.945312 105.558594 106.597656 C 104.738281 107.355469 103.578125 108.125 102.558594 108.679688 C 101.621094 109.1875 100.71875 109.5625 99.703125 109.839844 C 98.601562 110.167969 97.332031 110.40625 96.097656 110.390625 C 94.835938 110.382812 93.386719 110.074219 92.203125 109.710938 C 91.152344 109.382812 90.230469 108.964844 89.359375 108.472656 C 88.484375 107.980469 87.742188 107.371094 87.019531 106.726562 C 86.261719 106.058594 85.503906 105.386719 84.886719 104.503906 C 84.214844 103.511719 83.21875 102 83.277344 100.972656 C 83.320312 100.164062 84.132812 99.222656 84.683594 98.769531 C 85.074219 98.441406 85.585938 98.238281 86.015625 98.238281 C 86.46875 98.203125 87.074219 98.445312 87.40625 98.710938 C 87.699219 98.925781 87.878906 99.195312 88.007812 99.507812 C 88.097656 99.796875 88.152344 100.492188 88.152344 100.492188 " clip-rule="nonzero"/></clipPath><clipPath id="42165a6874"><path d="M 0.015625 0 L 30 0 L 30 29.570312 L 0.015625 29.570312 Z M 0.015625 0 " clip-rule="nonzero"/></clipPath><clipPath id="69942d08c7"><path d="M -2.738281 6.226562 L 28.742188 -0.464844 L 34.203125 25.242188 L 2.726562 31.933594 Z M -2.738281 6.226562 " clip-rule="nonzero"/></clipPath><clipPath id="d8552c03df"><path d="M 5.152344 19.492188 C 9.78125 22.75 10.867188 23.226562 11.984375 23.417969 C 13.027344 23.566406 14.21875 23.527344 15.238281 23.25 C 16.222656 22.976562 17.148438 22.414062 17.949219 21.84375 C 18.722656 21.277344 19.316406 20.597656 19.949219 19.820312 C 20.65625 18.960938 21.351562 17.890625 21.871094 16.859375 C 22.441406 15.785156 22.882812 14.828125 23.214844 13.5 C 23.613281 11.753906 23.757812 8.957031 23.789062 7.230469 C 23.816406 6.054688 23.511719 5.199219 23.671875 4.210938 C 23.789062 3.171875 24.25 1.71875 24.664062 1.078125 C 24.875 0.757812 25.054688 0.597656 25.359375 0.4375 C 25.753906 0.261719 26.375 0.160156 26.789062 0.226562 C 27.136719 0.277344 27.417969 0.433594 27.65625 0.6875 C 27.960938 0.960938 28.410156 1.480469 28.351562 1.925781 C 28.25 2.621094 26.765625 4.167969 26.070312 4.222656 C 25.53125 4.277344 24.773438 3.609375 24.511719 3.109375 C 24.28125 2.605469 24.300781 1.679688 24.574219 1.222656 C 24.867188 0.726562 25.664062 0.28125 26.199219 0.199219 C 26.617188 0.140625 27.109375 0.28125 27.4375 0.519531 C 27.792969 0.753906 28.121094 1.144531 28.261719 1.511719 C 28.378906 1.917969 28.457031 2.425781 28.296875 2.828125 C 28.089844 3.300781 27.464844 3.988281 26.921875 4.164062 C 26.398438 4.308594 25.5 4.128906 25.058594 3.792969 C 24.609375 3.425781 24.304688 2.570312 24.316406 2.042969 C 24.316406 1.613281 24.558594 1.164062 24.832031 0.859375 C 25.105469 0.554688 25.910156 0.136719 25.988281 0.214844 C 26.078125 0.347656 24.488281 2.5625 24.324219 2.503906 C 24.257812 2.488281 24.289062 2.203125 24.339844 2.007812 C 24.394531 1.6875 24.683594 1.011719 24.960938 0.738281 C 25.210938 0.46875 25.523438 0.34375 25.8125 0.25 C 26.132812 0.183594 26.5 0.167969 26.789062 0.226562 C 27.117188 0.3125 27.347656 0.386719 27.65625 0.6875 C 28.304688 1.289062 29.441406 3.015625 29.796875 4.539062 C 30.269531 6.464844 29.746094 9.5 29.539062 11.417969 C 29.378906 12.835938 29.15625 13.957031 28.875 15.09375 C 28.625 16.097656 28.441406 16.816406 27.933594 17.90625 C 27.191406 19.476562 25.515625 22.140625 24.488281 23.527344 C 23.789062 24.445312 23.3125 24.945312 22.558594 25.597656 C 21.738281 26.355469 20.578125 27.125 19.558594 27.679688 C 18.621094 28.1875 17.71875 28.5625 16.703125 28.839844 C 15.601562 29.167969 14.332031 29.40625 13.097656 29.390625 C 11.835938 29.382812 10.386719 29.074219 9.203125 28.710938 C 8.152344 28.382812 7.230469 27.964844 6.359375 27.472656 C 5.484375 26.980469 4.742188 26.371094 4.019531 25.726562 C 3.261719 25.058594 2.503906 24.386719 1.886719 23.503906 C 1.214844 22.511719 0.21875 21 0.277344 19.972656 C 0.320312 19.164062 1.132812 18.222656 1.683594 17.769531 C 2.074219 17.441406 2.585938 17.238281 3.015625 17.238281 C 3.46875 17.203125 4.074219 17.445312 4.40625 17.710938 C 4.699219 17.925781 4.878906 18.195312 5.007812 18.507812 C 5.097656 18.796875 5.152344 19.492188 5.152344 19.492188 " clip-rule="nonzero"/></clipPath><clipPath id="38539290e7"><rect x="0" width="30" y="0" height="30"/></clipPath><clipPath id="6b01d0e061"><path d="M 73 78 L 81 78 L 81 88 L 73 88 Z M 73 78 " clip-rule="nonzero"/></clipPath><clipPath id="6c2b130d02"><path d="M 72.636719 79.644531 L 79.773438 78.128906 L 81.53125 86.394531 L 74.394531 87.914062 Z M 72.636719 79.644531 " clip-rule="nonzero"/></clipPath><clipPath id="1414ffc908"><path d="M 73.34375 82.734375 C 74.226562 80.824219 73.984375 80.109375 74.203125 79.84375 C 74.378906 79.65625 74.796875 79.75 74.949219 79.59375 C 75.085938 79.503906 75.0625 79.261719 75.167969 79.179688 C 75.308594 79.117188 75.546875 79.222656 75.695312 79.191406 C 75.78125 79.171875 75.851562 79.066406 75.964844 79.011719 C 76.074219 78.957031 76.273438 78.882812 76.421875 78.851562 C 76.597656 78.8125 76.75 78.8125 76.933594 78.804688 C 77.058594 78.808594 77.253906 78.859375 77.347656 78.871094 C 77.40625 78.859375 77.453125 78.785156 77.488281 78.808594 C 77.582031 78.820312 77.644531 78.960938 77.707031 78.976562 C 77.78125 79.023438 77.808594 79.019531 77.878906 79.0625 C 77.980469 79.105469 78.035156 79.214844 78.167969 79.25 C 78.367188 79.328125 78.855469 79.164062 78.972656 79.292969 C 79.085938 79.390625 78.820312 79.726562 78.929688 79.949219 C 79.070312 80.316406 79.925781 80.441406 80.226562 80.992188 C 80.6875 81.847656 80.988281 84 80.566406 85.042969 C 80.175781 85.953125 79.089844 86.921875 78.144531 87.09375 C 77.070312 87.261719 75.101562 86.386719 74.3125 85.570312 C 73.640625 84.855469 73.34375 82.734375 73.34375 82.734375 " clip-rule="nonzero"/></clipPath><clipPath id="e323887df4"><path d="M 0.222656 0.570312 L 8 0.570312 L 8 9.40625 L 0.222656 9.40625 Z M 0.222656 0.570312 " clip-rule="nonzero"/></clipPath><clipPath id="b189e3c640"><path d="M -0.363281 1.644531 L 6.773438 0.128906 L 8.53125 8.394531 L 1.394531 9.914062 Z M -0.363281 1.644531 " clip-rule="nonzero"/></clipPath><clipPath id="4a88891bb4"><path d="M 0.34375 4.734375 C 1.226562 2.824219 0.984375 2.109375 1.203125 1.84375 C 1.378906 1.65625 1.796875 1.75 1.949219 1.59375 C 2.085938 1.503906 2.0625 1.261719 2.167969 1.179688 C 2.308594 1.117188 2.546875 1.222656 2.695312 1.191406 C 2.78125 1.171875 2.851562 1.066406 2.964844 1.011719 C 3.074219 0.957031 3.273438 0.882812 3.421875 0.851562 C 3.597656 0.8125 3.75 0.8125 3.933594 0.804688 C 4.058594 0.808594 4.253906 0.859375 4.347656 0.871094 C 4.40625 0.859375 4.453125 0.785156 4.488281 0.808594 C 4.582031 0.820312 4.644531 0.960938 4.707031 0.976562 C 4.78125 1.023438 4.808594 1.019531 4.878906 1.0625 C 4.980469 1.105469 5.035156 1.214844 5.167969 1.25 C 5.367188 1.328125 5.855469 1.164062 5.972656 1.292969 C 6.085938 1.390625 5.820312 1.726562 5.929688 1.949219 C 6.070312 2.316406 6.925781 2.441406 7.226562 2.992188 C 7.6875 3.847656 7.988281 6 7.566406 7.042969 C 7.175781 7.953125 6.089844 8.921875 5.144531 9.09375 C 4.070312 9.261719 2.101562 8.386719 1.3125 7.570312 C 0.640625 6.855469 0.34375 4.734375 0.34375 4.734375 " clip-rule="nonzero"/></clipPath><clipPath id="73c857f497"><rect x="0" width="8" y="0" height="10"/></clipPath><clipPath id="607e3ee13c"><path d="M 90 66 L 99 66 L 99 75 L 90 75 Z M 90 66 " clip-rule="nonzero"/></clipPath><clipPath id="f2d7f686da"><path d="M 89.890625 67.074219 L 97.890625 65.375 L 99.574219 73.296875 L 91.578125 74.996094 Z M 89.890625 67.074219 " clip-rule="nonzero"/></clipPath><clipPath id="44a3a2b5b5"><path d="M 90.785156 71.21875 C 91.261719 69.550781 91.226562 69.527344 91.226562 69.527344 C 91.21875 69.496094 91.253906 69.519531 91.277344 69.484375 C 91.421875 69.300781 91.414062 67.519531 92 66.964844 C 92.777344 66.277344 94.902344 66.007812 96.011719 66.296875 C 96.980469 66.519531 98.132812 67.320312 98.40625 68.03125 C 98.648438 68.59375 98.050781 69.398438 98.128906 69.902344 C 98.175781 70.261719 98.585938 70.453125 98.558594 70.765625 C 98.53125 71.078125 97.988281 71.410156 97.84375 71.746094 C 97.703125 72.085938 97.871094 72.601562 97.679688 72.859375 C 97.488281 73.113281 96.785156 73.261719 96.703125 73.3125 C 96.703125 73.3125 96.671875 73.316406 96.671875 73.316406 C 96.53125 73.378906 94.976562 74.445312 94.550781 74.324219 C 94.324219 74.277344 94.320312 73.816406 94.152344 73.761719 C 93.980469 73.675781 93.820312 73.925781 93.558594 73.855469 C 92.929688 73.652344 90.785156 71.21875 90.785156 71.21875 " clip-rule="nonzero"/></clipPath><clipPath id="13d27f693c"><path d="M 0.65625 0 L 8.777344 0 L 8.777344 8.507812 L 0.65625 8.507812 Z M 0.65625 0 " clip-rule="nonzero"/></clipPath><clipPath id="a10134cc17"><path d="M -0.109375 1.074219 L 7.890625 -0.625 L 9.574219 7.296875 L 1.578125 8.996094 Z M -0.109375 1.074219 " clip-rule="nonzero"/></clipPath><clipPath id="93cf55f8c7"><path d="M 0.785156 5.21875 C 1.261719 3.550781 1.226562 3.527344 1.226562 3.527344 C 1.21875 3.496094 1.253906 3.519531 1.277344 3.484375 C 1.421875 3.300781 1.414062 1.519531 2 0.964844 C 2.777344 0.277344 4.902344 0.0078125 6.011719 0.296875 C 6.980469 0.519531 8.132812 1.320312 8.40625 2.03125 C 8.648438 2.59375 8.050781 3.398438 8.128906 3.902344 C 8.175781 4.261719 8.585938 4.453125 8.558594 4.765625 C 8.53125 5.078125 7.988281 5.410156 7.84375 5.746094 C 7.703125 6.085938 7.871094 6.601562 7.679688 6.859375 C 7.488281 7.113281 6.785156 7.261719 6.703125 7.3125 C 6.703125 7.3125 6.671875 7.316406 6.671875 7.316406 C 6.53125 7.378906 4.976562 8.445312 4.550781 8.324219 C 4.324219 8.277344 4.320312 7.816406 4.152344 7.761719 C 3.980469 7.675781 3.820312 7.925781 3.558594 7.855469 C 2.929688 7.652344 0.785156 5.21875 0.785156 5.21875 " clip-rule="nonzero"/></clipPath><clipPath id="408634d876"><rect x="0" width="9" y="0" height="9"/></clipPath><clipPath id="a44f2a914b"><path d="M 137 76 L 167 76 L 167 110 L 137 110 Z M 137 76 " clip-rule="nonzero"/></clipPath><clipPath id="6ff3617d63"><path d="M 136.203125 77.222656 L 160.285156 72.101562 L 167.976562 108.28125 L 143.890625 113.398438 Z M 136.203125 77.222656 " clip-rule="nonzero"/></clipPath><clipPath id="a5a5b42008"><path d="M 142.589844 78.621094 C 144.925781 89.46875 146.585938 93.359375 147.601562 95.539062 C 148.210938 96.824219 148.554688 97.703125 149.253906 98.539062 C 149.949219 99.34375 150.738281 99.882812 151.796875 100.519531 C 153.316406 101.457031 156.128906 102.671875 157.773438 103.183594 C 158.863281 103.535156 159.667969 103.859375 160.570312 103.757812 C 161.417969 103.699219 162.445312 103.175781 163.035156 102.773438 C 163.4375 102.503906 163.519531 102.023438 163.941406 101.84375 C 164.425781 101.648438 165.34375 101.636719 165.820312 101.84375 C 166.226562 102.03125 166.558594 102.425781 166.726562 102.789062 C 166.894531 103.152344 166.949219 103.691406 166.847656 104.082031 C 166.777344 104.46875 166.539062 104.949219 166.1875 105.175781 C 165.761719 105.484375 164.851562 105.675781 164.34375 105.601562 C 163.894531 105.511719 163.519531 105.191406 163.261719 104.847656 C 163.007812 104.53125 162.8125 104.050781 162.851562 103.640625 C 162.890625 103.109375 163.265625 102.261719 163.75 101.945312 C 164.207031 101.632812 165.121094 101.59375 165.648438 101.757812 C 166.042969 101.886719 166.394531 102.242188 166.625 102.59375 C 166.824219 102.953125 166.960938 103.320312 166.894531 103.859375 C 166.757812 104.964844 165.648438 107.691406 164.609375 108.585938 C 163.863281 109.269531 162.851562 109.296875 161.90625 109.46875 C 160.964844 109.667969 160 109.75 158.996094 109.65625 C 157.890625 109.523438 156.6875 109.070312 155.554688 108.667969 C 154.425781 108.261719 153.441406 107.824219 152.171875 107.203125 C 150.5 106.421875 147.890625 105.285156 146.484375 104.167969 C 145.449219 103.34375 144.867188 102.484375 144.210938 101.578125 C 143.601562 100.726562 143.25 100.09375 142.6875 98.890625 C 141.683594 96.765625 139.886719 92.507812 139.050781 89.734375 C 138.363281 87.511719 137.929688 85.328125 137.714844 83.59375 C 137.535156 82.308594 137.296875 81.34375 137.527344 80.25 C 137.742188 79.097656 138.457031 77.53125 139.089844 76.90625 C 139.503906 76.539062 140.027344 76.398438 140.453125 76.371094 C 140.8125 76.324219 141.132812 76.378906 141.417969 76.566406 C 141.796875 76.761719 142.238281 77.25 142.445312 77.636719 C 142.570312 77.949219 142.589844 78.621094 142.589844 78.621094 " clip-rule="nonzero"/></clipPath><clipPath id="255289e0b4"><path d="M 0.226562 0.179688 L 30 0.179688 L 30 33.851562 L 0.226562 33.851562 Z M 0.226562 0.179688 " clip-rule="nonzero"/></clipPath><clipPath id="d3236cb7b7"><path d="M -0.796875 1.222656 L 23.285156 -3.898438 L 30.976562 32.28125 L 6.890625 37.398438 Z M -0.796875 1.222656 " clip-rule="nonzero"/></clipPath><clipPath id="9552ee65f6"><path d="M 5.589844 2.621094 C 7.925781 13.46875 9.585938 17.359375 10.601562 19.539062 C 11.210938 20.824219 11.554688 21.703125 12.253906 22.539062 C 12.949219 23.34375 13.738281 23.882812 14.796875 24.519531 C 16.316406 25.457031 19.128906 26.671875 20.773438 27.183594 C 21.863281 27.535156 22.667969 27.859375 23.570312 27.757812 C 24.417969 27.699219 25.445312 27.175781 26.035156 26.773438 C 26.4375 26.503906 26.519531 26.023438 26.941406 25.84375 C 27.425781 25.648438 28.34375 25.636719 28.820312 25.84375 C 29.226562 26.03125 29.558594 26.425781 29.726562 26.789062 C 29.894531 27.152344 29.949219 27.691406 29.847656 28.082031 C 29.777344 28.46875 29.539062 28.949219 29.1875 29.175781 C 28.761719 29.484375 27.851562 29.675781 27.34375 29.601562 C 26.894531 29.511719 26.519531 29.191406 26.261719 28.847656 C 26.007812 28.53125 25.8125 28.050781 25.851562 27.640625 C 25.890625 27.109375 26.265625 26.261719 26.75 25.945312 C 27.207031 25.632812 28.121094 25.59375 28.648438 25.757812 C 29.042969 25.886719 29.394531 26.242188 29.625 26.59375 C 29.824219 26.953125 29.960938 27.320312 29.894531 27.859375 C 29.757812 28.964844 28.648438 31.691406 27.609375 32.585938 C 26.863281 33.269531 25.851562 33.296875 24.90625 33.46875 C 23.964844 33.667969 23 33.75 21.996094 33.65625 C 20.890625 33.523438 19.6875 33.070312 18.554688 32.667969 C 17.425781 32.261719 16.441406 31.824219 15.171875 31.203125 C 13.5 30.421875 10.890625 29.285156 9.484375 28.167969 C 8.449219 27.34375 7.867188 26.484375 7.210938 25.578125 C 6.601562 24.726562 6.25 24.09375 5.6875 22.890625 C 4.683594 20.765625 2.886719 16.507812 2.050781 13.734375 C 1.363281 11.511719 0.929688 9.328125 0.714844 7.59375 C 0.535156 6.308594 0.296875 5.34375 0.527344 4.25 C 0.742188 3.097656 1.457031 1.53125 2.089844 0.90625 C 2.503906 0.539062 3.027344 0.398438 3.453125 0.371094 C 3.8125 0.324219 4.132812 0.378906 4.417969 0.566406 C 4.796875 0.761719 5.238281 1.25 5.445312 1.636719 C 5.570312 1.949219 5.589844 2.621094 5.589844 2.621094 " clip-rule="nonzero"/></clipPath><clipPath id="664b62ed66"><rect x="0" width="30" y="0" height="34"/></clipPath><clipPath id="e64c6fec64"><path d="M 156 65 L 164 65 L 164 73 L 156 73 Z M 156 65 " clip-rule="nonzero"/></clipPath><clipPath id="b10bcb1b6b"><path d="M 155.46875 66.101562 L 162.28125 64.652344 L 163.855469 72.054688 L 157.042969 73.503906 Z M 155.46875 66.101562 " clip-rule="nonzero"/></clipPath><clipPath id="4725be3f38"><path d="M 161.6875 69.242188 C 160.246094 71.148438 158.296875 71.226562 157.5625 70.671875 C 156.789062 70.070312 156.175781 68.046875 156.511719 67.175781 C 156.878906 66.300781 158.773438 65.375 159.808594 65.460938 C 160.804688 65.527344 162.144531 66.625 162.675781 67.527344 C 163.164062 68.375 163.433594 69.792969 163.03125 70.648438 C 162.507812 71.652344 160.371094 73.027344 159.242188 72.929688 C 158.210938 72.839844 156.960938 71.445312 156.503906 70.46875 C 156.09375 69.539062 156.082031 68.191406 156.457031 67.34375 C 156.78125 66.566406 157.617188 65.710938 158.460938 65.5 C 159.421875 65.238281 161.320312 65.632812 162.035156 66.402344 C 162.789062 67.195312 163.191406 69.230469 162.796875 70.269531 C 162.402344 71.304688 160.566406 72.21875 159.726562 72.609375 C 159.222656 72.839844 158.839844 72.921875 158.425781 72.855469 C 158.050781 72.8125 157.570312 72.578125 157.265625 72.304688 C 156.992188 72.023438 156.738281 71.554688 156.679688 71.136719 C 156.625 70.75 156.734375 70.234375 156.929688 69.855469 C 157.132812 69.503906 157.449219 69.128906 157.886719 69.007812 C 158.367188 68.8125 159.292969 68.828125 159.785156 69.125 C 160.25 69.425781 160.695312 70.222656 160.71875 70.769531 C 160.746094 71.320312 160.335938 72.144531 159.886719 72.484375 C 159.4375 72.828125 158.527344 72.898438 158.007812 72.761719 C 157.585938 72.667969 157.210938 72.347656 157.007812 71.960938 C 156.753906 71.492188 156.648438 70.558594 156.820312 70.0625 C 156.949219 69.667969 157.304688 69.160156 157.6875 69.078125 C 158.222656 68.996094 159.519531 70.625 159.960938 70.378906 C 160.4375 70.15625 160.628906 67.746094 160.320312 67.597656 C 159.941406 67.402344 157.472656 69.523438 157.601562 69.988281 C 157.742188 70.359375 159.734375 70.765625 160.332031 70.390625 C 160.894531 69.996094 161.421875 68.285156 161.078125 67.683594 C 160.6875 66.996094 157.703125 67.140625 157.695312 66.800781 C 157.660156 66.503906 159.269531 65.824219 159.933594 65.773438 C 160.445312 65.726562 161.003906 65.882812 161.367188 66.144531 C 161.730469 66.40625 162.058594 66.949219 162.175781 67.355469 C 162.28125 67.703125 162.261719 68.046875 162.175781 68.371094 C 162.085938 68.667969 161.6875 69.242188 161.6875 69.242188 " clip-rule="nonzero"/></clipPath><clipPath id="48c582db51"><path d="M 0 0.195312 L 7.496094 0.195312 L 7.496094 8 L 0 8 Z M 0 0.195312 " clip-rule="nonzero"/></clipPath><clipPath id="0e17c1a229"><path d="M -0.53125 1.101562 L 6.28125 -0.347656 L 7.855469 7.054688 L 1.042969 8.503906 Z M -0.53125 1.101562 " clip-rule="nonzero"/></clipPath><clipPath id="f7b6208978"><path d="M 5.6875 4.242188 C 4.246094 6.148438 2.296875 6.226562 1.5625 5.671875 C 0.789062 5.070312 0.175781 3.046875 0.511719 2.175781 C 0.878906 1.300781 2.773438 0.375 3.808594 0.460938 C 4.804688 0.527344 6.144531 1.625 6.675781 2.527344 C 7.164062 3.375 7.433594 4.792969 7.03125 5.648438 C 6.507812 6.652344 4.371094 8.027344 3.242188 7.929688 C 2.210938 7.839844 0.960938 6.445312 0.503906 5.46875 C 0.09375 4.539062 0.0820312 3.191406 0.457031 2.34375 C 0.78125 1.566406 1.617188 0.710938 2.460938 0.5 C 3.421875 0.238281 5.320312 0.632812 6.035156 1.402344 C 6.789062 2.195312 7.191406 4.230469 6.796875 5.269531 C 6.402344 6.304688 4.566406 7.21875 3.726562 7.609375 C 3.222656 7.839844 2.839844 7.921875 2.425781 7.855469 C 2.050781 7.8125 1.570312 7.578125 1.265625 7.304688 C 0.992188 7.023438 0.738281 6.554688 0.679688 6.136719 C 0.625 5.75 0.734375 5.234375 0.929688 4.855469 C 1.132812 4.503906 1.449219 4.128906 1.886719 4.007812 C 2.367188 3.8125 3.292969 3.828125 3.785156 4.125 C 4.25 4.425781 4.695312 5.222656 4.71875 5.769531 C 4.746094 6.320312 4.335938 7.144531 3.886719 7.484375 C 3.4375 7.828125 2.527344 7.898438 2.007812 7.761719 C 1.585938 7.667969 1.210938 7.347656 1.007812 6.960938 C 0.753906 6.492188 0.648438 5.558594 0.820312 5.0625 C 0.949219 4.667969 1.304688 4.160156 1.6875 4.078125 C 2.222656 3.996094 3.519531 5.625 3.960938 5.378906 C 4.4375 5.15625 4.628906 2.746094 4.320312 2.597656 C 3.941406 2.402344 1.472656 4.523438 1.601562 4.988281 C 1.742188 5.359375 3.734375 5.765625 4.332031 5.390625 C 4.894531 4.996094 5.421875 3.285156 5.078125 2.683594 C 4.6875 1.996094 1.703125 2.140625 1.695312 1.800781 C 1.660156 1.503906 3.269531 0.824219 3.933594 0.773438 C 4.445312 0.726562 5.003906 0.882812 5.367188 1.144531 C 5.730469 1.40625 6.058594 1.949219 6.175781 2.355469 C 6.28125 2.703125 6.261719 3.046875 6.175781 3.371094 C 6.085938 3.667969 5.6875 4.242188 5.6875 4.242188 " clip-rule="nonzero"/></clipPath><clipPath id="8d4ae40d03"><rect x="0" width="8" y="0" height="8"/></clipPath><clipPath id="411d50c69a"><path d="M 169 81 L 179 81 L 179 91 L 169 91 Z M 169 81 " clip-rule="nonzero"/></clipPath><clipPath id="c8bd826c85"><path d="M 168.945312 82.855469 L 177.53125 81.03125 L 179.457031 90.085938 L 170.871094 91.910156 Z M 168.945312 82.855469 " clip-rule="nonzero"/></clipPath><clipPath id="9f8fe89076"><path d="M 169.738281 86.4375 C 170.636719 84.742188 170.554688 84.636719 170.59375 84.535156 C 170.625 84.40625 170.839844 84.390625 170.984375 84.207031 C 171.28125 83.867188 171.597656 82.601562 172.011719 82.390625 C 172.316406 82.230469 172.769531 82.628906 173.085938 82.527344 C 173.40625 82.429688 173.585938 81.839844 173.980469 81.816406 C 174.492188 81.769531 175.660156 82.78125 175.992188 82.894531 C 176.125 82.929688 176.175781 82.886719 176.242188 82.902344 C 176.28125 82.957031 176.296875 83.015625 176.367188 83.0625 C 176.558594 83.238281 177.5625 83.484375 177.71875 83.789062 C 177.835938 84.039062 177.539062 84.378906 177.601562 84.675781 C 177.710938 85.050781 178.410156 85.300781 178.523438 85.832031 C 178.722656 86.773438 178.449219 89.105469 177.617188 89.957031 C 176.777344 90.78125 174.652344 91.203125 173.535156 90.855469 C 172.421875 90.539062 171.097656 88.640625 170.847656 88.046875 C 170.746094 87.855469 170.878906 87.761719 170.804688 87.5625 C 170.679688 87.253906 169.738281 86.4375 169.738281 86.4375 " clip-rule="nonzero"/></clipPath><clipPath id="56148a8365"><path d="M 0.703125 0.671875 L 9.777344 0.671875 L 9.777344 10 L 0.703125 10 Z M 0.703125 0.671875 " clip-rule="nonzero"/></clipPath><clipPath id="ccf539f2b6"><path d="M -0.0546875 1.855469 L 8.53125 0.03125 L 10.457031 9.085938 L 1.871094 10.910156 Z M -0.0546875 1.855469 " clip-rule="nonzero"/></clipPath><clipPath id="388d4bdb55"><path d="M 0.738281 5.4375 C 1.636719 3.742188 1.554688 3.636719 1.59375 3.535156 C 1.625 3.40625 1.839844 3.390625 1.984375 3.207031 C 2.28125 2.867188 2.597656 1.601562 3.011719 1.390625 C 3.316406 1.230469 3.769531 1.628906 4.085938 1.527344 C 4.40625 1.429688 4.585938 0.839844 4.980469 0.816406 C 5.492188 0.769531 6.660156 1.78125 6.992188 1.894531 C 7.125 1.929688 7.175781 1.886719 7.242188 1.902344 C 7.28125 1.957031 7.296875 2.015625 7.367188 2.0625 C 7.558594 2.238281 8.5625 2.484375 8.71875 2.789062 C 8.835938 3.039062 8.539062 3.378906 8.601562 3.675781 C 8.710938 4.050781 9.410156 4.300781 9.523438 4.832031 C 9.722656 5.773438 9.449219 8.105469 8.617188 8.957031 C 7.777344 9.78125 5.652344 10.203125 4.535156 9.855469 C 3.421875 9.539062 2.097656 7.640625 1.847656 7.046875 C 1.746094 6.855469 1.878906 6.761719 1.804688 6.5625 C 1.679688 6.253906 0.738281 5.4375 0.738281 5.4375 " clip-rule="nonzero"/></clipPath><clipPath id="d749c0f42c"><rect x="0" width="10" y="0" height="10"/></clipPath><clipPath id="739cceb93d"><path d="M 85 128 L 114 128 L 114 198 L 85 198 Z M 85 128 " clip-rule="nonzero"/></clipPath><clipPath id="87718b7d28"><path d="M 84.859375 128.761719 L 99.710938 125.605469 L 114.597656 195.636719 L 99.746094 198.792969 Z M 84.859375 128.761719 " clip-rule="nonzero"/></clipPath><clipPath id="0e7daea8b7"><path d="M 89.753906 129.570312 C 92.304688 134.347656 92.636719 135.75 93.308594 138.34375 C 94.800781 144.054688 97.316406 157.476562 99.488281 165.960938 C 101.386719 173.304688 104.050781 182.664062 105.402344 186.40625 C 105.925781 187.863281 105.980469 188.835938 106.675781 189.363281 C 107.328125 189.839844 108.765625 189.933594 109.320312 189.660156 C 109.707031 189.457031 109.722656 188.808594 110.039062 188.554688 C 110.355469 188.304688 110.828125 188.082031 111.238281 188.117188 C 111.769531 188.15625 112.621094 188.558594 112.953125 188.953125 C 113.238281 189.289062 113.34375 189.789062 113.335938 190.191406 C 113.332031 190.59375 113.128906 191.097656 112.894531 191.421875 C 112.621094 191.726562 112.1875 192.003906 111.78125 192.121094 C 111.398438 192.203125 110.878906 192.21875 110.492188 191.996094 C 110.042969 191.753906 109.402344 191.058594 109.320312 190.523438 C 109.199219 189.964844 109.539062 189.09375 109.859375 188.71875 C 110.15625 188.378906 110.636719 188.183594 111.023438 188.132812 C 111.441406 188.074219 111.945312 188.121094 112.308594 188.382812 C 112.742188 188.6875 113.171875 189.273438 113.324219 189.980469 C 113.546875 191.039062 113.3125 193.117188 112.691406 194.234375 C 112.160156 195.207031 111.148438 195.945312 110.140625 196.40625 C 109.070312 196.878906 107.59375 197.160156 106.4375 196.914062 C 105.246094 196.675781 104.011719 195.769531 103.152344 194.910156 C 102.332031 194.097656 101.890625 193.023438 101.328125 191.976562 C 100.75 190.839844 100.414062 190.140625 99.792969 188.367188 C 98.203125 183.785156 94.972656 172.054688 92.753906 163.054688 C 90.230469 152.925781 85.648438 134.253906 85.707031 130.492188 C 85.726562 129.71875 85.824219 129.453125 86.078125 129.058594 C 86.371094 128.691406 86.878906 128.335938 87.320312 128.242188 C 87.789062 128.144531 88.394531 128.230469 88.800781 128.421875 C 89.1875 128.644531 89.753906 129.570312 89.753906 129.570312 " clip-rule="nonzero"/></clipPath><clipPath id="7fdc227350"><path d="M 0.640625 0.00390625 L 28.582031 0.00390625 L 28.582031 69.257812 L 0.640625 69.257812 Z M 0.640625 0.00390625 " clip-rule="nonzero"/></clipPath><clipPath id="3e4d60a8a5"><path d="M -0.140625 0.761719 L 14.710938 -2.394531 L 29.597656 67.636719 L 14.746094 70.792969 Z M -0.140625 0.761719 " clip-rule="nonzero"/></clipPath><clipPath id="cf6107202f"><path d="M 4.753906 1.570312 C 7.304688 6.347656 7.636719 7.75 8.308594 10.34375 C 9.800781 16.054688 12.316406 29.476562 14.488281 37.960938 C 16.386719 45.304688 19.050781 54.664062 20.402344 58.40625 C 20.925781 59.863281 20.980469 60.835938 21.675781 61.363281 C 22.328125 61.839844 23.765625 61.933594 24.320312 61.660156 C 24.707031 61.457031 24.722656 60.808594 25.039062 60.554688 C 25.355469 60.304688 25.828125 60.082031 26.238281 60.117188 C 26.769531 60.15625 27.621094 60.558594 27.953125 60.953125 C 28.238281 61.289062 28.34375 61.789062 28.335938 62.191406 C 28.332031 62.59375 28.128906 63.097656 27.894531 63.421875 C 27.621094 63.726562 27.1875 64.003906 26.78125 64.121094 C 26.398438 64.203125 25.878906 64.21875 25.492188 63.996094 C 25.042969 63.753906 24.402344 63.058594 24.320312 62.523438 C 24.199219 61.964844 24.539062 61.09375 24.859375 60.71875 C 25.15625 60.378906 25.636719 60.183594 26.023438 60.132812 C 26.441406 60.074219 26.945312 60.121094 27.308594 60.382812 C 27.742188 60.6875 28.171875 61.273438 28.324219 61.980469 C 28.546875 63.039062 28.3125 65.117188 27.691406 66.234375 C 27.160156 67.207031 26.148438 67.945312 25.140625 68.40625 C 24.070312 68.878906 22.59375 69.160156 21.4375 68.914062 C 20.246094 68.675781 19.011719 67.769531 18.152344 66.910156 C 17.332031 66.097656 16.890625 65.023438 16.328125 63.976562 C 15.75 62.839844 15.414062 62.140625 14.792969 60.367188 C 13.203125 55.785156 9.972656 44.054688 7.753906 35.054688 C 5.230469 24.925781 0.648438 6.253906 0.707031 2.492188 C 0.726562 1.71875 0.824219 1.453125 1.078125 1.058594 C 1.371094 0.691406 1.878906 0.335938 2.320312 0.242188 C 2.789062 0.144531 3.394531 0.230469 3.800781 0.421875 C 4.1875 0.644531 4.753906 1.570312 4.753906 1.570312 " clip-rule="nonzero"/></clipPath><clipPath id="b897e492c1"><rect x="0" width="29" y="0" height="70"/></clipPath><clipPath id="0902a06205"><path d="M 107 125 L 132 125 L 132 177 L 107 177 Z M 107 125 " clip-rule="nonzero"/></clipPath><clipPath id="cefb65f40b"><path d="M 105.210938 126.511719 L 121.65625 123.015625 L 132.628906 174.628906 L 116.179688 178.125 Z M 105.210938 126.511719 " clip-rule="nonzero"/></clipPath><clipPath id="82530eb0fc"><path d="M 111.816406 127.492188 C 113.777344 134.699219 114.925781 143.277344 115.695312 146.898438 C 116.078125 148.84375 116.304688 149.625 116.761719 151.34375 C 117.363281 153.734375 118.246094 157.175781 119.128906 159.878906 C 119.96875 162.375 121.003906 165.226562 121.929688 166.96875 C 122.464844 168.054688 122.761719 169.15625 123.566406 169.480469 C 124.378906 169.828125 126.019531 169.296875 126.867188 168.808594 C 127.601562 168.34375 127.855469 167.089844 128.507812 166.828125 C 129.070312 166.585938 129.941406 166.769531 130.390625 167.015625 C 130.777344 167.238281 131.046875 167.644531 131.195312 168.042969 C 131.335938 168.410156 131.324219 168.9375 131.222656 169.328125 C 131.089844 169.722656 130.777344 170.128906 130.433594 170.386719 C 130.109375 170.609375 129.585938 170.75 129.1875 170.742188 C 128.777344 170.707031 128.3125 170.53125 127.976562 170.261719 C 127.671875 169.988281 127.375 169.59375 127.316406 169.175781 C 127.230469 168.636719 127.410156 167.738281 127.78125 167.324219 C 128.183594 166.898438 129.054688 166.652344 129.585938 166.691406 C 130.023438 166.722656 130.449219 167 130.730469 167.308594 C 131.035156 167.582031 131.257812 168.058594 131.28125 168.453125 C 131.339844 168.871094 131.226562 169.203125 131.03125 169.738281 C 130.601562 170.902344 129.554688 173.769531 128.246094 174.847656 C 127.070312 175.835938 125.21875 176.382812 123.785156 176.289062 C 122.476562 176.199219 121.0625 175.328125 119.996094 174.511719 C 118.964844 173.714844 118.167969 172.5625 117.410156 171.464844 C 116.648438 170.335938 116.144531 169.273438 115.519531 167.777344 C 114.597656 165.605469 113.574219 162.378906 112.726562 159.546875 C 111.824219 156.605469 111.054688 154 110.285156 150.382812 C 109.246094 145.347656 107.667969 136.03125 107.417969 131.964844 C 107.304688 129.988281 107.332031 128.539062 107.632812 127.492188 C 107.785156 126.90625 107.976562 126.496094 108.308594 126.179688 C 108.667969 125.855469 109.273438 125.667969 109.730469 125.632812 C 110.066406 125.621094 110.394531 125.734375 110.703125 125.886719 C 110.984375 126.039062 111.28125 126.285156 111.460938 126.554688 C 111.640625 126.824219 111.816406 127.492188 111.816406 127.492188 " clip-rule="nonzero"/></clipPath><clipPath id="f375ae9b5c"><path d="M 0.136719 0.613281 L 24.492188 0.613281 L 24.492188 51.480469 L 0.136719 51.480469 Z M 0.136719 0.613281 " clip-rule="nonzero"/></clipPath><clipPath id="fbfa9d99f3"><path d="M -1.789062 1.511719 L 14.65625 -1.984375 L 25.628906 49.628906 L 9.179688 53.125 Z M -1.789062 1.511719 " clip-rule="nonzero"/></clipPath><clipPath id="dbc31e74d7"><path d="M 4.816406 2.492188 C 6.777344 9.699219 7.925781 18.277344 8.695312 21.898438 C 9.078125 23.84375 9.304688 24.625 9.761719 26.34375 C 10.363281 28.734375 11.246094 32.175781 12.128906 34.878906 C 12.96875 37.375 14.003906 40.226562 14.929688 41.96875 C 15.464844 43.054688 15.761719 44.15625 16.566406 44.480469 C 17.378906 44.828125 19.019531 44.296875 19.867188 43.808594 C 20.601562 43.34375 20.855469 42.089844 21.507812 41.828125 C 22.070312 41.585938 22.941406 41.769531 23.390625 42.015625 C 23.777344 42.238281 24.046875 42.644531 24.195312 43.042969 C 24.335938 43.410156 24.324219 43.9375 24.222656 44.328125 C 24.089844 44.722656 23.777344 45.128906 23.433594 45.386719 C 23.109375 45.609375 22.585938 45.75 22.1875 45.742188 C 21.777344 45.707031 21.3125 45.53125 20.976562 45.261719 C 20.671875 44.988281 20.375 44.59375 20.316406 44.175781 C 20.230469 43.636719 20.410156 42.738281 20.78125 42.324219 C 21.183594 41.898438 22.054688 41.652344 22.585938 41.691406 C 23.023438 41.722656 23.449219 42 23.730469 42.308594 C 24.035156 42.582031 24.257812 43.058594 24.28125 43.453125 C 24.339844 43.871094 24.226562 44.203125 24.03125 44.738281 C 23.601562 45.902344 22.554688 48.769531 21.246094 49.847656 C 20.070312 50.835938 18.21875 51.382812 16.785156 51.289062 C 15.476562 51.199219 14.0625 50.328125 12.996094 49.511719 C 11.964844 48.714844 11.167969 47.5625 10.410156 46.464844 C 9.648438 45.335938 9.144531 44.273438 8.519531 42.777344 C 7.597656 40.605469 6.574219 37.378906 5.726562 34.546875 C 4.824219 31.605469 4.054688 29 3.285156 25.382812 C 2.246094 20.347656 0.667969 11.03125 0.417969 6.964844 C 0.304688 4.988281 0.332031 3.539062 0.632812 2.492188 C 0.785156 1.90625 0.976562 1.496094 1.308594 1.179688 C 1.667969 0.855469 2.273438 0.667969 2.730469 0.632812 C 3.066406 0.621094 3.394531 0.734375 3.703125 0.886719 C 3.984375 1.039062 4.28125 1.285156 4.460938 1.554688 C 4.640625 1.824219 4.816406 2.492188 4.816406 2.492188 " clip-rule="nonzero"/></clipPath><clipPath id="c615b8f7ff"><rect x="0" width="25" y="0" height="52"/></clipPath><clipPath id="be3fd2ea12"><path d="M 144 124 L 163 124 L 163 193 L 144 193 Z M 144 124 " clip-rule="nonzero"/></clipPath><clipPath id="517d3fe1b1"><path d="M 138.472656 126.050781 L 149.960938 123.609375 L 164.371094 191.40625 L 152.886719 193.847656 Z M 138.472656 126.050781 " clip-rule="nonzero"/></clipPath><clipPath id="550b602295"><path d="M 149.417969 126.203125 C 152.839844 145.640625 153.96875 150.660156 155.171875 155.875 C 156.46875 161.410156 158.066406 167.773438 159.472656 172.945312 C 160.605469 177.253906 162.722656 182.152344 162.847656 184.769531 C 162.910156 186.078125 162.617188 186.726562 162.269531 187.691406 C 161.90625 188.722656 161.460938 189.953125 160.664062 190.832031 C 159.835938 191.714844 158.507812 192.703125 157.351562 192.886719 C 156.25 193.058594 154.878906 192.828125 153.957031 192.101562 C 152.804688 191.179688 151.65625 188.226562 151.507812 187.089844 C 151.453125 186.546875 151.558594 186.1875 151.757812 185.804688 C 151.957031 185.457031 152.3125 185.105469 152.714844 184.957031 C 153.078125 184.789062 153.589844 184.742188 154.007812 184.835938 C 154.394531 184.90625 154.84375 185.148438 155.109375 185.523438 C 155.386719 185.957031 155.636719 186.855469 155.472656 187.382812 C 155.308594 187.910156 154.679688 188.566406 154.132812 188.746094 C 153.617188 188.914062 152.703125 188.679688 152.277344 188.402344 C 151.914062 188.140625 151.644531 187.738281 151.550781 187.296875 C 151.472656 186.789062 151.679688 185.882812 151.988281 185.449219 C 152.253906 185.117188 152.695312 184.871094 153.113281 184.8125 C 153.65625 184.757812 154.5 184.976562 154.945312 185.34375 C 155.371094 185.746094 155.453125 187.140625 155.722656 187.113281 C 156.058594 187.105469 156.210938 184.492188 156.710938 184.382812 C 157.246094 184.300781 158.789062 186.648438 158.789062 186.648438 C 158.820312 186.640625 156.824219 184.914062 156.058594 183.476562 C 154.898438 181.355469 154.441406 178.042969 153.511719 174.550781 C 152.242188 169.71875 150.574219 163.03125 149.289062 157.125 C 147.933594 151.050781 146.421875 143.347656 145.671875 138.527344 C 145.203125 135.460938 144.832031 133.265625 144.816406 131.023438 C 144.785156 129.15625 144.898438 127.070312 145.25 125.980469 C 145.460938 125.382812 145.648438 124.976562 146.023438 124.710938 C 146.394531 124.417969 146.96875 124.234375 147.433594 124.257812 C 147.902344 124.28125 148.476562 124.527344 148.792969 124.859375 C 149.109375 125.191406 149.417969 126.203125 149.417969 126.203125 " clip-rule="nonzero"/></clipPath><clipPath id="0ecb0de408"><path d="M 0.628906 0.183594 L 19 0.183594 L 19 69 L 0.628906 69 Z M 0.628906 0.183594 " clip-rule="nonzero"/></clipPath><clipPath id="7e290f65b7"><path d="M -5.527344 2.050781 L 5.960938 -0.390625 L 20.371094 67.40625 L 8.886719 69.847656 Z M -5.527344 2.050781 " clip-rule="nonzero"/></clipPath><clipPath id="6e5a1e040e"><path d="M 5.417969 2.203125 C 8.839844 21.640625 9.96875 26.660156 11.171875 31.875 C 12.46875 37.410156 14.066406 43.773438 15.472656 48.945312 C 16.605469 53.253906 18.722656 58.152344 18.847656 60.769531 C 18.910156 62.078125 18.617188 62.726562 18.269531 63.691406 C 17.90625 64.722656 17.460938 65.953125 16.664062 66.832031 C 15.835938 67.714844 14.507812 68.703125 13.351562 68.886719 C 12.25 69.058594 10.878906 68.828125 9.957031 68.101562 C 8.804688 67.179688 7.65625 64.226562 7.507812 63.089844 C 7.453125 62.546875 7.558594 62.1875 7.757812 61.804688 C 7.957031 61.457031 8.3125 61.105469 8.714844 60.957031 C 9.078125 60.789062 9.589844 60.742188 10.007812 60.835938 C 10.394531 60.90625 10.84375 61.148438 11.109375 61.523438 C 11.386719 61.957031 11.636719 62.855469 11.472656 63.382812 C 11.308594 63.910156 10.679688 64.566406 10.132812 64.746094 C 9.617188 64.914062 8.703125 64.679688 8.277344 64.402344 C 7.914062 64.140625 7.644531 63.738281 7.550781 63.296875 C 7.472656 62.789062 7.679688 61.882812 7.988281 61.449219 C 8.253906 61.117188 8.695312 60.871094 9.113281 60.8125 C 9.65625 60.757812 10.5 60.976562 10.945312 61.34375 C 11.371094 61.746094 11.453125 63.140625 11.722656 63.113281 C 12.058594 63.105469 12.210938 60.492188 12.710938 60.382812 C 13.246094 60.300781 14.789062 62.648438 14.789062 62.648438 C 14.820312 62.640625 12.824219 60.914062 12.058594 59.476562 C 10.898438 57.355469 10.441406 54.042969 9.511719 50.550781 C 8.242188 45.71875 6.574219 39.03125 5.289062 33.125 C 3.933594 27.050781 2.421875 19.347656 1.671875 14.527344 C 1.203125 11.460938 0.832031 9.265625 0.816406 7.023438 C 0.785156 5.15625 0.898438 3.070312 1.25 1.980469 C 1.460938 1.382812 1.648438 0.976562 2.023438 0.710938 C 2.394531 0.417969 2.96875 0.234375 3.433594 0.257812 C 3.902344 0.28125 4.476562 0.527344 4.792969 0.859375 C 5.109375 1.191406 5.417969 2.203125 5.417969 2.203125 " clip-rule="nonzero"/></clipPath><clipPath id="05a39f6edd"><rect x="0" width="19" y="0" height="69"/></clipPath><clipPath id="1b9edc45df"><path d="M 160 125 L 174 125 L 174 169 L 160 169 Z M 160 125 " clip-rule="nonzero"/></clipPath><clipPath id="125fd19e78"><path d="M 159.035156 126.265625 L 167.546875 124.453125 L 176.542969 166.769531 L 168.03125 168.578125 Z M 159.035156 126.265625 " clip-rule="nonzero"/></clipPath><clipPath id="422e6c2394"><path d="M 164.132812 126.886719 C 167.234375 131.363281 168.621094 135.125 169.632812 138.015625 C 170.59375 140.792969 171.398438 143.574219 172.082031 146.347656 C 172.746094 149.035156 173.390625 151.789062 173.671875 154.402344 C 173.941406 156.835938 174.003906 159.433594 173.914062 161.484375 C 173.84375 163.035156 173.996094 164.476562 173.425781 165.550781 C 172.871094 166.5625 171.476562 167.503906 170.636719 167.898438 C 170.132812 168.128906 169.621094 168.175781 169.242188 168.132812 C 168.894531 168.082031 168.585938 167.933594 168.351562 167.707031 C 168.046875 167.433594 167.6875 166.894531 167.621094 166.449219 C 167.566406 166.03125 167.679688 165.421875 167.914062 165.0625 C 168.167969 164.671875 168.648438 164.324219 169.050781 164.207031 C 169.453125 164.0625 169.953125 164.109375 170.351562 164.238281 C 170.71875 164.375 171.152344 164.683594 171.355469 165.070312 C 171.605469 165.507812 171.652344 166.453125 171.480469 166.949219 C 171.355469 167.375 170.964844 167.703125 170.605469 167.902344 C 170.25 168.101562 169.753906 168.238281 169.335938 168.144531 C 168.820312 168.039062 168.066406 167.523438 167.804688 167.023438 C 167.578125 166.519531 167.660156 165.609375 167.867188 165.136719 C 168.054688 164.726562 168.449219 164.398438 168.851562 164.28125 C 169.339844 164.117188 170.277344 164.191406 170.730469 164.433594 C 171.109375 164.628906 171.414062 165.058594 171.5625 165.457031 C 171.671875 165.832031 171.691406 166.351562 171.558594 166.75 C 171.457031 167.140625 170.792969 167.773438 170.800781 167.800781 C 170.828125 167.796875 171.359375 167.253906 171.351562 167.222656 C 171.316406 167.199219 170.621094 167.960938 170.183594 168.085938 C 169.75 168.210938 169.152344 168.152344 168.773438 167.957031 C 168.363281 167.765625 167.957031 167.300781 167.757812 166.941406 C 167.628906 166.628906 167.585938 166.269531 167.609375 165.957031 C 167.636719 165.644531 167.941406 165.335938 167.914062 165.0625 C 167.910156 164.757812 167.511719 164.625 167.417969 164.1875 C 167.195312 163.125 168.019531 160.367188 168.019531 158.339844 C 168 156.222656 167.691406 154.042969 167.328125 151.753906 C 166.921875 149.257812 166.441406 146.871094 165.59375 144.039062 C 164.507812 140.363281 161.871094 134.621094 161.011719 131.730469 C 160.5625 130.199219 160.261719 129.0625 160.242188 128.113281 C 160.210938 127.535156 160.265625 127.0625 160.492188 126.675781 C 160.714844 126.292969 161.1875 125.914062 161.617188 125.761719 C 162.082031 125.632812 162.671875 125.660156 163.109375 125.84375 C 163.519531 126.035156 164.132812 126.886719 164.132812 126.886719 " clip-rule="nonzero"/></clipPath><clipPath id="dabcf86807"><path d="M 0.152344 0.613281 L 14 0.613281 L 14 43.363281 L 0.152344 43.363281 Z M 0.152344 0.613281 " clip-rule="nonzero"/></clipPath><clipPath id="9ea70b01cf"><path d="M -0.964844 1.265625 L 7.546875 -0.546875 L 16.542969 41.769531 L 8.03125 43.578125 Z M -0.964844 1.265625 " clip-rule="nonzero"/></clipPath><clipPath id="3b0ab3245d"><path d="M 4.132812 1.886719 C 7.234375 6.363281 8.621094 10.125 9.632812 13.015625 C 10.59375 15.792969 11.398438 18.574219 12.082031 21.347656 C 12.746094 24.035156 13.390625 26.789062 13.671875 29.402344 C 13.941406 31.835938 14.003906 34.433594 13.914062 36.484375 C 13.84375 38.035156 13.996094 39.476562 13.425781 40.550781 C 12.871094 41.5625 11.476562 42.503906 10.636719 42.898438 C 10.132812 43.128906 9.621094 43.175781 9.242188 43.132812 C 8.894531 43.082031 8.585938 42.933594 8.351562 42.707031 C 8.046875 42.433594 7.6875 41.894531 7.621094 41.449219 C 7.566406 41.03125 7.679688 40.421875 7.914062 40.0625 C 8.167969 39.671875 8.648438 39.324219 9.050781 39.207031 C 9.453125 39.0625 9.953125 39.109375 10.351562 39.238281 C 10.71875 39.375 11.152344 39.683594 11.355469 40.070312 C 11.605469 40.507812 11.652344 41.453125 11.480469 41.949219 C 11.355469 42.375 10.964844 42.703125 10.605469 42.902344 C 10.25 43.101562 9.753906 43.238281 9.335938 43.144531 C 8.820312 43.039062 8.066406 42.523438 7.804688 42.023438 C 7.578125 41.519531 7.660156 40.609375 7.867188 40.136719 C 8.054688 39.726562 8.449219 39.398438 8.851562 39.28125 C 9.339844 39.117188 10.277344 39.191406 10.730469 39.433594 C 11.109375 39.628906 11.414062 40.058594 11.5625 40.457031 C 11.671875 40.832031 11.691406 41.351562 11.558594 41.75 C 11.457031 42.140625 10.792969 42.773438 10.800781 42.800781 C 10.828125 42.796875 11.359375 42.253906 11.351562 42.222656 C 11.316406 42.199219 10.621094 42.960938 10.183594 43.085938 C 9.75 43.210938 9.152344 43.152344 8.773438 42.957031 C 8.363281 42.765625 7.957031 42.300781 7.757812 41.941406 C 7.628906 41.628906 7.585938 41.269531 7.609375 40.957031 C 7.636719 40.644531 7.941406 40.335938 7.914062 40.0625 C 7.910156 39.757812 7.511719 39.625 7.417969 39.1875 C 7.195312 38.125 8.019531 35.367188 8.019531 33.339844 C 8 31.222656 7.691406 29.042969 7.328125 26.753906 C 6.921875 24.257812 6.441406 21.871094 5.59375 19.039062 C 4.507812 15.363281 1.871094 9.621094 1.011719 6.730469 C 0.5625 5.199219 0.261719 4.0625 0.242188 3.113281 C 0.210938 2.535156 0.265625 2.0625 0.492188 1.675781 C 0.714844 1.292969 1.1875 0.914062 1.617188 0.761719 C 2.082031 0.632812 2.671875 0.660156 3.109375 0.84375 C 3.519531 1.035156 4.132812 1.886719 4.132812 1.886719 " clip-rule="nonzero"/></clipPath><clipPath id="a70f40478e"><rect x="0" width="14" y="0" height="44"/></clipPath></defs><g clip-path="url(#d51082fbd8)"><g clip-path="url(#653c4e23f1)"><g clip-path="url(#5c0d9f288c)"><path fill="#fdfff9" d="M 38.34375 118.703125 L 38.375 118.710938 L 38.507812 118.769531 C 54.039062 125.578125 93.871094 126.632812 124.199219 125.453125 C 125.148438 113.484375 128.875 59.644531 121.042969 39.558594 L 120.984375 39.410156 C 119.542969 35.785156 117.441406 32.511719 114.730469 29.6875 C 103.257812 17.734375 84.199219 17.34375 72.246094 28.816406 C 64.421875 36.328125 65.34375 52.050781 68.511719 63.246094 L 70.335938 69.332031 L 64.328125 67.253906 C 53.273438 63.628906 37.601562 62.0625 29.773438 69.574219 C 17.820312 81.046875 17.429688 100.101562 28.902344 112.058594 C 31.609375 114.878906 34.785156 117.113281 38.34375 118.703125 Z M 129.117188 131.660156 L 126.355469 130.808594 C 114.714844 131.300781 58.035156 133.164062 36.449219 123.808594 L 36.414062 123.796875 L 36.289062 123.742188 C 32.023438 121.863281 28.214844 119.199219 24.976562 115.824219 C 11.429688 101.707031 11.890625 79.199219 26.007812 65.648438 C 34.6875 57.320312 49.824219 57.640625 62.332031 60.988281 C 59.5 48.355469 59.800781 33.222656 68.480469 24.890625 C 82.597656 11.34375 105.105469 11.804688 118.652344 25.921875 C 121.894531 29.296875 124.398438 33.207031 126.101562 37.550781 L 126.164062 37.722656 C 135.34375 61.566406 129.664062 125.597656 129.417969 128.316406 L 129.117188 131.660156 " fill-opacity="1" fill-rule="nonzero"/></g></g></g><g clip-path="url(#63a8e387b9)"><g clip-path="url(#ecc16f01e0)"><g clip-path="url(#8f01a12316)"><path fill="#fdfff9" d="M 133.234375 40 L 133.226562 40.03125 L 133.179688 40.164062 C 127.550781 56.167969 129.476562 95.984375 132.925781 126.152344 C 144.933594 126.199219 198.925781 125.894531 218.375 116.574219 L 218.519531 116.507812 C 222.027344 114.796875 225.132812 112.453125 227.75 109.539062 C 238.816406 97.199219 237.777344 78.160156 225.441406 67.09375 C 217.363281 59.847656 201.746094 61.945312 190.816406 65.941406 L 184.878906 68.21875 L 186.5 62.070312 C 189.289062 50.769531 189.679688 35.019531 181.601562 27.773438 C 169.261719 16.707031 150.222656 17.742188 139.15625 30.082031 C 136.542969 32.992188 134.550781 36.328125 133.234375 40 Z M 127.101562 131.519531 L 127.742188 128.703125 C 126.378906 117.125 120.28125 60.726562 128 38.492188 L 128.007812 38.453125 L 128.054688 38.328125 C 129.609375 33.925781 131.980469 29.929688 135.105469 26.449219 C 148.175781 11.875 170.664062 10.652344 185.234375 23.722656 C 194.195312 31.757812 195.003906 46.882812 192.601562 59.609375 C 204.992188 55.839844 220.113281 55.007812 229.074219 63.042969 C 243.644531 76.109375 244.867188 98.597656 231.800781 113.171875 C 228.675781 116.65625 224.960938 119.445312 220.753906 121.46875 L 220.585938 121.546875 C 197.492188 132.488281 133.1875 131.617188 130.457031 131.570312 L 127.101562 131.519531 " fill-opacity="1" fill-rule="nonzero"/></g></g></g><g clip-path="url(#967e2bbaaf)"><g clip-path="url(#2e5e318fff)"><g clip-path="url(#d1a3d8cefd)"><g transform="matrix(1, 0, 0, 1, 83, 81)"><g clip-path="url(#38539290e7)"><g clip-path="url(#42165a6874)"><g clip-path="url(#69942d08c7)"><g clip-path="url(#d8552c03df)"><path fill="#fdfff9" d="M -4.058594 5.371094 L 29.707031 -1.808594 L 35.632812 26.078125 L 1.871094 33.253906 Z M -4.058594 5.371094 " fill-opacity="1" fill-rule="nonzero"/></g></g></g></g></g></g></g></g><g clip-path="url(#6b01d0e061)"><g clip-path="url(#6c2b130d02)"><g clip-path="url(#1414ffc908)"><g transform="matrix(1, 0, 0, 1, 73, 78)"><g clip-path="url(#73c857f497)"><g clip-path="url(#e323887df4)"><g clip-path="url(#b189e3c640)"><g clip-path="url(#4a88891bb4)"><path fill="#fdfff9" d="M -1.742188 0.71875 L 7.582031 -1.261719 L 9.835938 9.335938 L 0.511719 11.316406 Z M -1.742188 0.71875 " fill-opacity="1" fill-rule="nonzero"/></g></g></g></g></g></g></g></g><g clip-path="url(#607e3ee13c)"><g clip-path="url(#f2d7f686da)"><g clip-path="url(#44a3a2b5b5)"><g transform="matrix(1, 0, 0, 1, 90, 66)"><g clip-path="url(#408634d876)"><g clip-path="url(#13d27f693c)"><g clip-path="url(#a10134cc17)"><g clip-path="url(#93cf55f8c7)"><path fill="#fdfff9" d="M -1.453125 0.46875 L 8.875 -1.726562 L 10.988281 8.214844 L 0.660156 10.410156 Z M -1.453125 0.46875 " fill-opacity="1" fill-rule="nonzero"/></g></g></g></g></g></g></g></g><g clip-path="url(#a44f2a914b)"><g clip-path="url(#6ff3617d63)"><g clip-path="url(#a5a5b42008)"><g transform="matrix(1, 0, 0, 1, 137, 76)"><g clip-path="url(#664b62ed66)"><g clip-path="url(#255289e0b4)"><g clip-path="url(#d3236cb7b7)"><g clip-path="url(#9552ee65f6)"><path fill="#fdfff9" d="M -2.0625 0.3125 L 24.175781 -5.265625 L 32.34375 33.167969 L 6.105469 38.746094 Z M -2.0625 0.3125 " fill-opacity="1" fill-rule="nonzero"/></g></g></g></g></g></g></g></g><g clip-path="url(#e64c6fec64)"><g clip-path="url(#b10bcb1b6b)"><g clip-path="url(#4725be3f38)"><g transform="matrix(1, 0, 0, 1, 156, 65)"><g clip-path="url(#8d4ae40d03)"><g clip-path="url(#48c582db51)"><g clip-path="url(#0e17c1a229)"><g clip-path="url(#f7b6208978)"><path fill="#fdfff9" d="M -1.847656 0.1875 L 7.007812 -1.695312 L 9.058594 7.953125 L 0.203125 9.835938 Z M -1.847656 0.1875 " fill-opacity="1" fill-rule="nonzero"/></g></g></g></g></g></g></g></g><g clip-path="url(#411d50c69a)"><g clip-path="url(#c8bd826c85)"><g clip-path="url(#9f8fe89076)"><g transform="matrix(1, 0, 0, 1, 169, 81)"><g clip-path="url(#d749c0f42c)"><g clip-path="url(#56148a8365)"><g clip-path="url(#ccf539f2b6)"><g clip-path="url(#388d4bdb55)"><path fill="#fdfff9" d="M -1.445312 0.953125 L 9.4375 -1.359375 L 11.757812 9.566406 L 0.875 11.878906 Z M -1.445312 0.953125 " fill-opacity="1" fill-rule="nonzero"/></g></g></g></g></g></g></g></g><g clip-path="url(#739cceb93d)"><g clip-path="url(#87718b7d28)"><g clip-path="url(#0e7daea8b7)"><g transform="matrix(1, 0, 0, 1, 85, 128)"><g clip-path="url(#b897e492c1)"><g clip-path="url(#7fdc227350)"><g clip-path="url(#3e4d60a8a5)"><g clip-path="url(#cf6107202f)"><path fill="#fdfff9" d="M -1.105469 -0.257812 L 15.570312 -3.804688 L 30.925781 68.441406 L 14.25 71.988281 Z M -1.105469 -0.257812 " fill-opacity="1" fill-rule="nonzero"/></g></g></g></g></g></g></g></g><g clip-path="url(#0902a06205)"><g clip-path="url(#cefb65f40b)"><g clip-path="url(#82530eb0fc)"><g transform="matrix(1, 0, 0, 1, 107, 125)"><g clip-path="url(#c615b8f7ff)"><g clip-path="url(#f375ae9b5c)"><g clip-path="url(#fbfa9d99f3)"><g clip-path="url(#dbc31e74d7)"><path fill="#fdfff9" d="M -3.199219 0.660156 L 15.597656 -3.332031 L 27.003906 50.335938 L 8.210938 54.328125 Z M -3.199219 0.660156 " fill-opacity="1" fill-rule="nonzero"/></g></g></g></g></g></g></g></g><g clip-path="url(#be3fd2ea12)"><g clip-path="url(#517d3fe1b1)"><g clip-path="url(#550b602295)"><g transform="matrix(1, 0, 0, 1, 144, 124)"><g clip-path="url(#05a39f6edd)"><g clip-path="url(#0ecb0de408)"><g clip-path="url(#7e290f65b7)"><g clip-path="url(#6e5a1e040e)"><path fill="#fdfff9" d="M -6.875 1.21875 L 6.800781 -1.6875 L 21.691406 68.351562 L 8.011719 71.261719 Z M -6.875 1.21875 " fill-opacity="1" fill-rule="nonzero"/></g></g></g></g></g></g></g></g><g clip-path="url(#1b9edc45df)"><g clip-path="url(#125fd19e78)"><g clip-path="url(#422e6c2394)"><g transform="matrix(1, 0, 0, 1, 160, 125)"><g clip-path="url(#a70f40478e)"><g clip-path="url(#dabcf86807)"><g clip-path="url(#9ea70b01cf)"><g clip-path="url(#3b0ab3245d)"><path fill="#fdfff9" d="M -2.339844 0.371094 L 8.398438 -1.910156 L 17.875 42.667969 L 7.136719 44.949219 Z M -2.339844 0.371094 " fill-opacity="1" fill-rule="nonzero"/></g></g></g></g></g></g></g></g></svg>