<svg xmlns="http://www.w3.org/2000/svg" viewBox="0 0 640 512" width="512" height="512" fill="#D86A85" role="img" aria-label="Site icon">
  <title>Site icon</title>
  <path fill-rule="nonzero" d="M 94.816406 295.804688 L 94.890625 295.832031 L 95.214844 295.976562 C 133.933594 312.953125 233.203125 315.601562 308.789062 312.679688 C 311.144531 282.851562 320.410156 148.667969 300.871094 98.609375 L 300.726562 98.234375 C 297.136719 89.195312 291.890625 81.046875 285.132812 74.003906 C 256.535156 44.207031 209.035156 43.222656 179.253906 71.804688 C 159.753906 90.519531 162.058594 129.707031 169.964844 157.609375 L 174.515625 172.78125 L 159.539062 167.601562 C 131.992188 158.5625 92.925781 154.648438 73.425781 173.359375 C 43.644531 201.945312 42.679688 249.441406 71.277344 279.242188 C 78.027344 286.273438 85.945312 291.847656 94.816406 295.804688 Z M 321.046875 328.152344 L 314.167969 326.03125 C 285.152344 327.257812 143.898438 331.859375 90.097656 308.53125 L 90.007812 308.5 L 89.699219 308.363281 C 79.058594 303.675781 69.570312 297.035156 61.5 288.625 C 27.722656 253.433594 28.863281 197.335938 64.039062 163.578125 C 85.667969 142.820312 123.386719 143.636719 154.5625 151.984375 C 147.5 120.496094 148.238281 82.777344 169.867188 62.023438 C 205.039062 28.265625 261.136719 29.429688 294.910156 64.621094 C 302.984375 73.03125 309.230469 82.785156 313.476562 93.609375 L 313.632812 94.039062 C 336.53125 153.464844 322.414062 313.050781 321.796875 319.828125 L 321.046875 328.152344"/>
  <path fill-rule="nonzero" d="M 331.203125 99.660156 L 331.183594 99.738281 L 331.0625 100.074219 C 317.03125 139.953125 321.8125 239.140625 330.378906 314.296875 C 360.300781 314.414062 494.800781 313.617188 543.257812 290.386719 L 543.625 290.21875 C 552.367188 285.960938 560.101562 280.121094 566.617188 272.855469 C 594.195312 242.105469 591.625 194.667969 560.890625 167.109375 C 540.769531 149.0625 501.863281 154.292969 474.632812 164.261719 L 459.84375 169.933594 L 463.886719 154.613281 C 470.84375 126.464844 471.824219 87.21875 451.703125 69.171875 C 420.972656 41.609375 373.535156 44.199219 345.960938 74.949219 C 339.449219 82.207031 334.484375 90.519531 331.203125 99.660156 Z M 315.867188 327.675781 L 317.46875 320.660156 C 314.078125 291.816406 298.921875 151.304688 318.160156 95.90625 L 318.183594 95.8125 L 318.296875 95.496094 C 322.171875 84.535156 328.085938 74.578125 335.871094 65.898438 C 368.4375 29.585938 424.460938 26.527344 460.757812 59.078125 C 483.074219 79.097656 485.082031 116.769531 479.089844 148.484375 C 509.960938 139.085938 547.628906 137 569.945312 157.015625 C 606.238281 189.566406 609.273438 245.589844 576.707031 281.902344 C 568.921875 290.582031 559.664062 297.539062 549.191406 302.585938 L 548.769531 302.773438 C 491.226562 330.050781 331.03125 327.910156 324.226562 327.804688 L 315.867188 327.675781"/>
</svg>
